<svg id="Layer_1" data-name="Layer 1" xmlns="http://www.w3.org/2000/svg" viewBox="0 0 904.45 334.33"><defs><style>.cls-1,.cls-31{fill:#fff;}.cls-2{fill:#333;}.cls-3{fill:#ff1d25;}.cls-4{font-size:14px;}.cls-4,.cls-9{font-family:RationalText-Bold, Rational Text;font-weight:700;}.cls-5{letter-spacing:-0.04em;}.cls-6{letter-spacing:-0.05em;}.cls-7{letter-spacing:-0.01em;}.cls-8{fill:#02a50a;}.cls-9{font-size:12px;}.cls-10{letter-spacing:-0.01em;}.cls-11{letter-spacing:-0.02em;}.cls-12{letter-spacing:0em;}.cls-13{letter-spacing:-0.01em;}.cls-14{letter-spacing:0.01em;}.cls-15{letter-spacing:0em;}.cls-16{letter-spacing:-0.01em;}.cls-17{letter-spacing:0em;}.cls-18{letter-spacing:-0.03em;}.cls-19{letter-spacing:-0.07em;}.cls-20{letter-spacing:-0.01em;}.cls-21{letter-spacing:0.01em;}.cls-22{letter-spacing:0em;}.cls-23{letter-spacing:-0.02em;}.cls-24{letter-spacing:-0.01em;}.cls-25{letter-spacing:-0.01em;}.cls-26{letter-spacing:-0.02em;}.cls-27,.cls-28,.cls-30{fill:none;}.cls-27{stroke:#333;}.cls-27,.cls-28,.cls-30,.cls-31{stroke-miterlimit:10;}.cls-28{stroke:blue;opacity:0.25;}.cls-29{letter-spacing:0.01em;}.cls-30,.cls-31{stroke:#000;}</style></defs><rect class="cls-1" x="4.65" y="67.04" width="153" height="153" rx="14"/><path class="cls-2" d="M207.57,163.76a13.51,13.51,0,0,1,13.5,13.5v125a13.51,13.51,0,0,1-13.5,13.49h-125a13.51,13.51,0,0,1-13.5-13.49v-125a13.51,13.51,0,0,1,13.5-13.5h125m0-1h-125a14.5,14.5,0,0,0-14.5,14.5v125a14.5,14.5,0,0,0,14.5,14.49h125a14.5,14.5,0,0,0,14.5-14.49v-125a14.5,14.5,0,0,0-14.5-14.5Z" transform="translate(-63.92 -96.22)"/><rect class="cls-3" x="218.65" y="67.04" width="153" height="153" rx="14"/><path class="cls-2" d="M421.57,163.76a13.51,13.51,0,0,1,13.5,13.5v125a13.51,13.51,0,0,1-13.5,13.49h-125a13.51,13.51,0,0,1-13.5-13.49v-125a13.51,13.51,0,0,1,13.5-13.5h125m0-1h-125a14.5,14.5,0,0,0-14.5,14.5v125a14.5,14.5,0,0,0,14.5,14.49h125a14.5,14.5,0,0,0,14.5-14.49v-125a14.5,14.5,0,0,0-14.5-14.5Z" transform="translate(-63.92 -96.22)"/><text class="cls-4" transform="translate(29.71 11.9)">OF<tspan class="cls-5" x="20.8" y="0">F</tspan><tspan x="29.65" y="0">/IN</tspan><tspan class="cls-6" x="54.45" y="0">A</tspan><tspan class="cls-7" x="64.92" y="0">C</tspan><tspan x="75.8" y="0">TIVE</tspan></text><text class="cls-4" transform="translate(285.71 16.9)">ON</text><rect class="cls-8" x="699.65" y="67.04" width="153" height="153" rx="14"/><path class="cls-2" d="M902.57,163.76a13.51,13.51,0,0,1,13.5,13.5v125a13.51,13.51,0,0,1-13.5,13.49h-125a13.51,13.51,0,0,1-13.5-13.49v-125a13.51,13.51,0,0,1,13.5-13.5h125m0-1h-125a14.5,14.5,0,0,0-14.5,14.5v125a14.5,14.5,0,0,0,14.5,14.49h125a14.5,14.5,0,0,0,14.5-14.49v-125a14.5,14.5,0,0,0-14.5-14.5Z" transform="translate(-63.92 -96.22)"/><text class="cls-4" transform="translate(747.71 16.9)"><tspan class="cls-6">A</tspan><tspan class="cls-7" x="10.47" y="0">C</tspan><tspan x="21.35" y="0">TIVE</tspan></text><text class="cls-9" transform="translate(497.57 120.81)"><tspan class="cls-10">R</tspan><tspan x="8.87" y="0">andomi</tspan><tspan class="cls-11" x="53.26" y="0">z</tspan><tspan x="59.71" y="0">ed </tspan><tspan x="0" y="14.4">timer (seconds)</tspan></text><text class="cls-9" transform="translate(198 248.58)"><tspan class="cls-12">C</tspan><tspan x="9.42" y="0">ube lig</tspan><tspan class="cls-13" x="49.08" y="0">h</tspan><tspan class="cls-14" x="56.53" y="0">t</tspan><tspan class="cls-15" x="62.03" y="0">s up </tspan><tspan class="cls-16" x="88.53" y="0">r</tspan><tspan x="93.96" y="0">ed on a</tspan><tspan class="cls-17" x="135.45" y="0">c</tspan><tspan x="142.41" y="0">ti</tspan><tspan class="cls-18" x="151.28" y="0">v</tspan><tspan class="cls-13" x="157.99" y="0">a</tspan><tspan x="164.84" y="0">tion</tspan></text><text class="cls-9" transform="translate(0 251.58)"><tspan class="cls-19">T</tspan><tspan x="6.9" y="0">ouch </tspan><tspan class="cls-20" x="38.72" y="0">t</tspan><tspan x="44" y="0">o a</tspan><tspan class="cls-17" x="60.7" y="0">c</tspan><tspan x="67.66" y="0">ti</tspan><tspan class="cls-18" x="76.52" y="0">v</tspan><tspan class="cls-13" x="83.23" y="0">a</tspan><tspan class="cls-20" x="90.08" y="0">t</tspan><tspan class="cls-15" x="95.36" y="0">e or turn on</tspan></text><text class="cls-9" transform="translate(676 251.58)"><tspan class="cls-12">C</tspan><tspan x="9.42" y="0">ube lig</tspan><tspan class="cls-13" x="49.08" y="0">h</tspan><tspan class="cls-14" x="56.53" y="0">t</tspan><tspan class="cls-15" x="62.03" y="0">s up g</tspan><tspan class="cls-20" x="95.88" y="0">r</tspan><tspan x="101.3" y="0">een and emi</tspan><tspan class="cls-21" x="172.02" y="0">t</tspan><tspan x="177.51" y="0">s sound. </tspan><tspan x="0" y="14.4">User n</tspan><tspan class="cls-22" x="38.26" y="14.4">o</tspan><tspan x="45.46" y="14.4">w has </tspan><tspan class="cls-20" x="80.83" y="14.4">t</tspan><tspan x="86.11" y="14.4">o </tspan><tspan class="cls-16" x="95.83" y="14.4">t</tspan><tspan x="101.11" y="14.4">ouch the cube</tspan><tspan x="0" y="28.8">as </tspan><tspan class="cls-23" x="15.74" y="28.8">f</tspan><tspan class="cls-15" x="20.9" y="28.8">ast as possib</tspan><tspan class="cls-20" x="96.48" y="28.8">l</tspan><tspan class="cls-24" x="100.46" y="28.8">e</tspan><tspan x="107.33" y="28.8">.</tspan></text><text class="cls-9" transform="translate(265 331.58)"><tspan class="cls-12">C</tspan><tspan x="9.42" y="0">ube is n</tspan><tspan class="cls-17" x="54" y="0">o</tspan><tspan x="61.21" y="0">t </tspan><tspan class="cls-16" x="69.07" y="0">t</tspan><tspan x="74.35" y="0">ouched be</tspan><tspan class="cls-25" x="135.63" y="0">f</tspan><tspan x="140.88" y="0">o</tspan><tspan class="cls-20" x="148.11" y="0">r</tspan><tspan x="153.54" y="0">e </tspan><tspan class="cls-26" x="163.03" y="0">r</tspan><tspan x="168.31" y="0">andomi</tspan><tspan class="cls-11" x="212.7" y="0">z</tspan><tspan class="cls-15" x="219.15" y="0">ed timer runs out</tspan></text><line class="cls-27" x1="445.15" y1="153.04" x2="627.15" y2="153.04"/><path class="cls-27" d="M803.07,148.76" transform="translate(-63.92 -96.22)"/><path class="cls-27" d="M551.07,93.76" transform="translate(-63.92 -96.22)"/><path class="cls-27" d="M427.07,134.76" transform="translate(-63.92 -96.22)"/><path class="cls-27" d="M427.07,119.57" transform="translate(-63.92 -96.22)"/><path class="cls-27" d="M427.07,134.76" transform="translate(-63.92 -96.22)"/><text class="cls-9" transform="translate(436.96 23.39)"><tspan class="cls-12">C</tspan><tspan x="9.42" y="0">ube is </tspan><tspan class="cls-20" x="46.43" y="0">t</tspan><tspan class="cls-15" x="51.71" y="0">ouched be</tspan><tspan class="cls-13" x="112.99" y="0">f</tspan><tspan class="cls-15" x="118.23" y="0">o</tspan><tspan class="cls-20" x="125.47" y="0">r</tspan><tspan x="130.89" y="0">e timer runs out</tspan></text><polyline class="cls-27" points="327.65 82.04 333.36 89.11 333.36 38.54 739.15 38.54 739.15 94.22"/><polyline class="cls-27" points="132.15 204.72 139.08 197.64 139.08 307.04 631.24 307.04 631.24 192.54 710.51 192.54"/><polyline class="cls-27" points="119.92 143.54 253.7 143.54 244.43 134.27"/><circle class="cls-28" cx="779.15" cy="143.54" r="21.5"/><text class="cls-9" transform="translate(768.36 146.51)">3, <tspan class="cls-29" x="13.4" y="0">2</tspan><tspan class="cls-15" x="20.54" y="0">, </tspan><tspan class="cls-24" x="26.6" y="0">1</tspan><tspan x="33.81" y="0">...</tspan></text><circle class="cls-28" cx="462.15" cy="125.54" r="21.5"/><text class="cls-9" transform="translate(451.36 128.51)">3, <tspan class="cls-29" x="13.4" y="0">2</tspan><tspan class="cls-15" x="20.54" y="0">, </tspan><tspan class="cls-24" x="26.6" y="0">1</tspan><tspan x="33.81" y="0">...</tspan></text><circle class="cls-28" cx="296.15" cy="143.54" r="21.5"/><text class="cls-9" transform="translate(285.36 146.51)">3, <tspan class="cls-29" x="13.4" y="0">2</tspan><tspan class="cls-15" x="20.54" y="0">, </tspan><tspan class="cls-24" x="26.6" y="0">1</tspan><tspan x="33.81" y="0">...</tspan></text><rect x="800.54" y="84.7" width="6.45" height="15.68" rx="3.22"/><path d="M883.22,188.58v8.15c0,4.36-2.54,7.08-4.57,4.9l-3.8-4.07-8.36-9,8.36-9,3.8-4.08c2-2.18,4.57.54,4.57,4.9Z" transform="translate(-63.92 -96.22)"/><path class="cls-30" d="M888.87,180.92a8.28,8.28,0,0,1,.4,16.24" transform="translate(-63.92 -96.22)"/><path class="cls-30" d="M894.73,177.56c3.86,1.15,6.68,5.55,6.88,10.67.21,5.35-2.48,10.27-6.48,11.73" transform="translate(-63.92 -96.22)"/><path class="cls-30" d="M901.18,174.76c3.86,1.44,6.68,6.94,6.88,13.34.21,6.68-2.49,12.84-6.48,14.66" transform="translate(-63.92 -96.22)"/><line class="cls-31" x1="84.65" y1="31.54" x2="84.65" y2="53.04"/><line class="cls-31" x1="295.65" y1="31.54" x2="295.65" y2="53.04"/><line class="cls-31" x1="776.65" y1="31.54" x2="776.65" y2="53.04"/></svg>