<?xml version="1.0" encoding="UTF-8"?>
<svg data-bbox="103 65 730.821 682.392" xmlns="http://www.w3.org/2000/svg" viewBox="0 0 1000 802" height="802" width="1000" data-type="ugc">
    <g>
        <g filter="url(#86a21c4d-33c7-45ef-8778-02e19d29c9bb)">
            <path fill="#002A4E" d="M238 65v135H103V65h135z"/>
        </g>
        <path fill="#000000" d="M278.608 110.2h-8.496V127h3.768v-6.264h4.728c3.552 0 5.856-2.28 5.856-5.304 0-3.024-2.304-5.232-5.856-5.232zm-.576 7.704h-4.152v-4.872h4.152c1.728 0 2.736 1.104 2.736 2.4 0 1.344-1.008 2.472-2.736 2.472zm12.211.144v-3.24h-3.384V127h3.384v-4.584c0-3.24 1.344-4.632 5.256-4.224v-3.504c-2.688 0-4.464.936-5.256 3.36zm19.084-3.24h-3.384V121c0 2.16-1.176 3.336-2.88 3.336-1.344 0-2.16-1.056-2.16-2.76v-6.768h-3.384v7.296c0 3.288 1.824 5.16 4.608 5.16 1.704 0 3.048-.744 3.816-2.352V127h3.384v-12.192zm10.105 3.864h3.048c-.288-2.76-2.112-4.176-5.352-4.176-3.024 0-5.088 1.176-5.088 3.744 0 2.688 1.92 3.192 4.584 3.768 2.112.456 2.736.624 2.736 1.512 0 .984-.816 1.368-1.992 1.368-1.464 0-2.424-.768-2.64-2.208h-3.024c.168 2.952 2.208 4.632 5.712 4.632 3.216 0 5.184-1.32 5.184-3.96 0-2.784-2.088-3.192-4.8-3.768-1.752-.408-2.592-.576-2.592-1.488 0-.72.72-1.272 1.896-1.272 1.392 0 2.136.672 2.328 1.848zm12.352 0h3.048c-.288-2.76-2.112-4.176-5.352-4.176-3.024 0-5.088 1.176-5.088 3.744 0 2.688 1.92 3.192 4.584 3.768 2.112.456 2.736.624 2.736 1.512 0 .984-.816 1.368-1.992 1.368-1.464 0-2.424-.768-2.64-2.208h-3.024c.168 2.952 2.208 4.632 5.712 4.632 3.216 0 5.184-1.32 5.184-3.96 0-2.784-2.088-3.192-4.8-3.768-1.752-.408-2.592-.576-2.592-1.488 0-.72.72-1.272 1.896-1.272 1.392 0 2.136.672 2.328 1.848zm5.2-5.76h4.104v-3.144h-4.104v3.144zm.36 14.088h3.384v-12.192h-3.384V127zm11.815-12.504c-3.144 0-5.352 1.512-5.4 4.248h3.216c.096-1.056.888-1.752 2.184-1.752 1.32 0 2.136.792 2.136 2.112v.36h-1.2c-5.112 0-6.888 1.8-6.888 4.152 0 2.16 1.656 3.504 4.032 3.504 2.376 0 3.576-1.152 3.984-1.8h.072V127h3.264v-7.872c0-2.928-1.92-4.632-5.4-4.632zm-.744 10.32c-1.128 0-1.848-.552-1.848-1.44 0-1.008.792-1.848 3.552-1.848h1.176v.864c0 1.344-1.272 2.424-2.88 2.424zm16.639-10.32c-1.752 0-3.144.816-3.912 2.568v-2.256h-3.384V127h3.384v-6.192c0-2.16 1.176-3.336 2.88-3.336 1.32 0 2.16 1.056 2.16 2.76V127h3.384v-7.488c0-2.976-1.608-5.016-4.512-5.016zm24.085 3.888c2.112-.624 3.504-1.848 3.504-4.032 0-2.448-2.04-4.152-5.184-4.152h-8.784V127h8.784c3.384 0 5.616-1.8 5.616-4.536 0-2.328-1.513-3.6-3.936-4.08zm-6.696-5.52h4.2c1.488 0 2.472.816 2.472 2.136 0 1.176-.816 2.136-2.808 2.136h-3.864v-4.272zm4.104 11.472h-4.104v-4.728h4.248c1.991 0 2.808 1.176 2.808 2.376 0 1.584-1.392 2.352-2.952 2.352zm15.409 2.52v-2.952c-.696.312-1.104.384-1.44.384-.576 0-.984-.528-.984-1.272V110.2h-3.384v13.272c0 2.256 1.392 3.768 3.768 3.768.504 0 1.176-.096 2.04-.384zm13.543-12.048h-3.384V121c0 2.16-1.176 3.336-2.88 3.336-1.344 0-2.16-1.056-2.16-2.76v-6.768h-3.384v7.296c0 3.288 1.824 5.16 4.608 5.16 1.704 0 3.048-.744 3.816-2.352V127h3.384v-12.192zm8.761 12.504c2.928 0 5.112-1.44 5.856-4.248h-3.336c-.456 1.224-1.44 1.704-2.544 1.704-1.56 0-2.784-1.176-2.904-3.072v-.072h8.856v-.552c0-3.888-2.016-6.576-5.952-6.576-3.768 0-6.216 2.592-6.216 6.432 0 3.768 2.376 6.384 6.24 6.384zm-2.832-7.632c.192-1.704 1.248-2.784 2.832-2.784 1.68 0 2.664 1.152 2.712 2.784h-5.544zm-135.5 28.288v-2.592h-3.192l.888-4.176h-3l-.888 4.176h-3.288l.888-4.176h-3l-.888 4.176h-3.576v2.592h3.024l-.768 3.504h-3.408v2.592h2.856l-.84 3.936h3l.84-3.936h3.288l-.84 3.936h3l.84-3.936h3.912v-2.592h-3.36l.768-3.504h3.744zm-7.512 3.504h-3.288l.768-3.504h3.288l-.768 3.504zm16.16-7.968c-4.032 0-6.984 3.048-6.984 7.392s2.952 7.368 6.984 7.368c4.056 0 6.984-3.024 6.984-7.368s-2.928-7.392-6.984-7.392zm0 2.736c2.088 0 3.528 1.824 3.528 4.656s-1.44 4.608-3.528 4.608-3.528-1.776-3.528-4.608 1.44-4.656 3.528-4.656zm15.844-2.736c-4.032 0-6.984 3.048-6.984 7.392s2.952 7.368 6.984 7.368c4.056 0 6.984-3.024 6.984-7.368s-2.928-7.392-6.984-7.392zm0 2.736c2.088 0 3.528 1.824 3.528 4.656s-1.44 4.608-3.528 4.608-3.528-1.776-3.528-4.608 1.44-4.656 3.528-4.656zm13.132 8.976l1.752-.912c3.288-1.368 5.52-3.144 5.52-5.856 0-2.976-2.328-4.944-5.832-4.944-3.792 0-6.12 2.088-6.192 5.592h3.408c-.048-1.656.936-2.832 2.736-2.832 1.44 0 2.448.984 2.448 2.28 0 1.656-1.608 2.832-3.216 3.816l-5.136 3.096V158h12.264v-2.784h-7.752zM346.569 158h3.936l-6.744-16.8h-4.008l-6.72 16.8h3.936l1.296-3.576h7.008l1.296 3.576zm-7.32-6.312l2.52-6.912 2.52 6.912h-5.04zm27.265 3.048h-2.328v-6.288h-2.976l-.36 6.288h-4.728c1.728-3.528 3.072-7.104 3.864-10.896h-3.672c-.84 4.08-2.232 7.872-4.128 11.64l.432 1.968h8.208v3.72h3.36v-3.72h2.328v-2.712zm15.624-10.632V141.2h-12.792V158h12.792v-2.904h-9.024v-4.32h8.448v-2.808h-8.448v-3.864h9.024z"/>
        <g filter="url(#cac42131-e0a5-4c09-8333-d1c0f5e0424c)">
            <path fill="#F7A600" d="M238 224v135H103V224h135z"/>
        </g>
        <path fill="#000000" d="M288.592 269.2l-2.928 11.856-3.672-11.856h-2.88l-3.672 11.856-2.904-11.856h-3.792l4.608 16.8h3.72l3.456-11.664L284.032 286h3.72l4.632-16.8h-3.792zm9.926 17.112c2.928 0 5.112-1.44 5.856-4.248h-3.336c-.456 1.224-1.44 1.704-2.544 1.704-1.56 0-2.784-1.176-2.904-3.072v-.072h8.856v-.552c0-3.888-2.016-6.576-5.952-6.576-3.768 0-6.216 2.592-6.216 6.432 0 3.768 2.376 6.384 6.24 6.384zm-2.832-7.632c.192-1.704 1.248-2.784 2.832-2.784 1.68 0 2.664 1.152 2.712 2.784h-5.544zm18.459 7.632c3.48 0 5.64-2.664 5.64-6.48 0-3.696-2.16-6.336-5.64-6.336-1.656 0-3.192.792-3.792 2.04h-.024l.024-6.336h-3.384V286h3.384l-.024-1.872h.024c.648 1.32 2.16 2.184 3.792 2.184zm-.792-10.08c1.8 0 3.096 1.44 3.096 3.6 0 2.304-1.296 3.744-3.096 3.744-1.848 0-3.12-1.416-3.12-3.624v-.144c.024-2.16 1.296-3.576 3.12-3.576zm22.589-7.344c-5.184 0-8.568 3.528-8.568 8.736 0 5.136 3.384 8.664 8.568 8.664 5.184 0 8.568-3.528 8.568-8.664 0-5.208-3.384-8.736-8.568-8.736zm0 3.12c2.856 0 4.704 2.304 4.704 5.616 0 3.24-1.848 5.544-4.704 5.544s-4.704-2.304-4.704-5.544c0-3.312 1.848-5.616 4.704-5.616zm14.887 5.04v-3.24h-3.384V286h3.384v-4.584c0-3.24 1.344-4.632 5.256-4.224v-3.504c-2.688 0-4.464.936-5.256 3.36zm12.087-3.552c-3.144 0-5.352 1.512-5.4 4.248h3.216c.096-1.056.888-1.752 2.184-1.752 1.32 0 2.136.792 2.136 2.112v.36h-1.2c-5.112 0-6.888 1.8-6.888 4.152 0 2.16 1.656 3.504 4.032 3.504 2.376 0 3.576-1.152 3.984-1.8h.072V286h3.264v-7.872c0-2.928-1.92-4.632-5.4-4.632zm-.744 10.32c-1.128 0-1.848-.552-1.848-1.44 0-1.008.792-1.848 3.552-1.848h1.176v.864c0 1.344-1.272 2.424-2.88 2.424zm16.639-10.32c-1.752 0-3.144.816-3.912 2.568v-2.256h-3.384V286h3.384v-6.192c0-2.16 1.176-3.336 2.88-3.336 1.32 0 2.16 1.056 2.16 2.76V286h3.384v-7.488c0-2.976-1.608-5.016-4.512-5.016zm20.376-1.296c-1.824 0-3.12.96-3.984 2.088-.936-.504-2.136-.792-3.48-.792-3.288 0-5.616 1.68-5.616 4.272 0 1.44.72 2.592 1.944 3.336-.744.504-1.416 1.224-1.416 2.208 0 .816.504 1.464 1.416 1.776-1.704.312-2.616 1.272-2.616 2.568 0 2.04 2.4 3.432 6.12 3.432 3.864 0 6.672-1.752 6.672-4.272 0-1.92-1.392-3.504-4.176-3.504h-3.6c-.648 0-1.008-.216-1.008-.648 0-.24.144-.552.36-.864.6.144 1.248.216 1.92.216 3.312 0 5.688-1.68 5.688-4.248 0-.936-.312-1.752-.864-2.4.84-.048 1.656-.072 2.64-.096V272.2zm-7.512 7.8c-1.32 0-2.184-.84-2.184-2.232 0-1.416.864-2.256 2.208-2.256 1.368 0 2.28.84 2.28 2.256 0 1.392-.912 2.232-2.304 2.232zm1.488 5.904c1.128 0 1.656.504 1.656 1.2 0 1.008-1.368 1.728-3.072 1.728-1.92 0-3.024-.624-3.024-1.584 0-.816.504-1.344 1.656-1.344h2.784zm13.097.408c2.928 0 5.112-1.44 5.856-4.248h-3.336c-.456 1.224-1.44 1.704-2.544 1.704-1.56 0-2.784-1.176-2.904-3.072v-.072h8.856v-.552c0-3.888-2.016-6.576-5.952-6.576-3.768 0-6.216 2.592-6.216 6.432 0 3.768 2.376 6.384 6.24 6.384zm-2.832-7.632c.192-1.704 1.248-2.784 2.832-2.784 1.68 0 2.664 1.152 2.712 2.784h-5.544zm-117.5 28.288v-2.592h-3.192l.888-4.176h-3l-.888 4.176h-3.288l.888-4.176h-3l-.888 4.176h-3.576v2.592h3.024l-.768 3.504h-3.408v2.592h2.856l-.84 3.936h3l.84-3.936h3.288l-.84 3.936h3l.84-3.936h3.912v-2.592h-3.36l.768-3.504h3.744zm-7.512 3.504h-3.288l.768-3.504h3.288l-.768 3.504zm23.144-7.224V300.2h-12.792V317h3.768v-6.672h8.112v-2.976h-8.112v-4.104h9.024zm1.847-.408v3.096h9.336c-4.224 3.792-6.096 8.784-6.096 13.44v.264h3.96c0-4.752 1.608-10.176 5.832-14.232v-2.568h-13.032zM331.124 317h3.936l-6.744-16.8h-4.008l-6.72 16.8h3.936l1.296-3.576h7.008l1.296 3.576zm-7.32-6.312l2.52-6.912 2.52 6.912h-5.04zm20.785-4.656c-2.112 0-3.48 1.008-4.176 2.448.192-3.912 1.488-5.928 3.552-5.928 1.08 0 2.136.576 2.424 2.064h3.648c-.696-3.696-3.84-4.728-6.168-4.728-4.032 0-6.888 3.12-6.888 8.808 0 2.688.528 4.848 1.728 6.336 1.152 1.464 2.976 2.28 5.088 2.28 3.816 0 6.384-2.352 6.384-5.856 0-3.144-2.352-5.424-5.592-5.424zm-.696 8.64c-1.824 0-3.048-1.392-3.048-3.192 0-1.824 1.296-3 3-3 1.824 0 3 1.32 3 3.096 0 1.824-1.2 3.096-2.952 3.096zm15.254-12.168c-4.032 0-6.984 3.048-6.984 7.392s2.952 7.368 6.984 7.368c4.056 0 6.984-3.024 6.984-7.368s-2.928-7.392-6.984-7.392zm0 2.736c2.088 0 3.528 1.824 3.528 4.656s-1.44 4.608-3.528 4.608-3.528-1.776-3.528-4.608 1.44-4.656 3.528-4.656zm15.843-2.736c-4.032 0-6.984 3.048-6.984 7.392s2.952 7.368 6.984 7.368c4.056 0 6.984-3.024 6.984-7.368s-2.928-7.392-6.984-7.392zm0 2.736c2.088 0 3.528 1.824 3.528 4.656s-1.44 4.608-3.528 4.608-3.528-1.776-3.528-4.608 1.44-4.656 3.528-4.656z"/>
        <g filter="url(#8ee41799-d213-48bd-8f46-214e54e2b3e6)">
            <path fill="#ffffff" d="M238 383v135H103V383h135z"/>
        </g>
        <path fill="#000000" d="M288.592 428.2l-2.928 11.856-3.672-11.856h-2.88l-3.672 11.856-2.904-11.856h-3.792l4.608 16.8h3.72l3.456-11.664L284.032 445h3.72l4.632-16.8h-3.792zm13.462 4.296c-1.752 0-3.144.816-3.912 2.568V428.2h-3.384V445h3.384v-6.192c0-2.16 1.176-3.336 2.88-3.336 1.32 0 2.16 1.056 2.16 2.76V445h3.384v-7.488c0-2.976-1.608-5.016-4.512-5.016zm7.344-1.584h4.104v-3.144h-4.104v3.144zm.36 14.088h3.384v-12.192h-3.384V445zm15.151-9.552v-2.64h-4.2v-3.648h-3.384v1.632c0 1.416-.672 2.016-2.136 2.016h-.048v2.64h2.184v5.496c0 2.592 1.92 4.296 4.824 4.296.792 0 1.752-.12 2.52-.528v-2.856c-.864.456-1.488.528-1.992.528-1.224 0-1.968-.672-1.968-1.92v-5.016h4.2zm7.336 9.864c2.928 0 5.112-1.44 5.856-4.248h-3.336c-.456 1.224-1.44 1.704-2.544 1.704-1.56 0-2.784-1.176-2.904-3.072v-.072h8.856v-.552c0-3.888-2.016-6.576-5.952-6.576-3.768 0-6.216 2.592-6.216 6.432 0 3.768 2.376 6.384 6.24 6.384zm-2.832-7.632c.192-1.704 1.248-2.784 2.832-2.784 1.68 0 2.664 1.152 2.712 2.784h-5.544zm-43.485 28.288v-2.592h-3.192l.888-4.176h-3l-.888 4.176h-3.288l.888-4.176h-3l-.888 4.176h-3.576v2.592h3.024l-.768 3.504h-3.408v2.592h2.856l-.84 3.936h3l.84-3.936h3.288l-.84 3.936h3l.84-3.936h3.912v-2.592h-3.36l.768-3.504h3.744zm-7.512 3.504h-3.288l.768-3.504h3.288l-.768 3.504zm23.144-7.224V459.2h-12.792V476h3.768v-6.672h8.112v-2.976h-8.112v-4.104h9.024zm16.055 0V459.2h-12.792V476h3.768v-6.672h8.112v-2.976h-8.112v-4.104h9.024zm16.055 0V459.2h-12.792V476h3.768v-6.672h8.112v-2.976h-8.112v-4.104h9.024zm16.054 0V459.2h-12.792V476h3.768v-6.672h8.112v-2.976H340.7v-4.104h9.024zm16.055 0V459.2h-12.792V476h3.768v-6.672h8.112v-2.976h-8.112v-4.104h9.024zm16.055 0V459.2h-12.792V476h3.768v-6.672h8.112v-2.976h-8.112v-4.104h9.024z"/>
        <g filter="url(#1da1056e-d7a1-47b7-a72e-7c594aab717a)">
            <path fill="#D34646" d="M553 364v65h-65v-65h65z"/>
        </g>
        <path fill="#000000" d="M596.104 371.2L592 383.584l-4.128-12.384h-4.128l6.264 16.8h3.984l6.264-16.8h-4.152zm9.555 4.296c-3.144 0-5.352 1.512-5.4 4.248h3.216c.096-1.056.888-1.752 2.184-1.752 1.32 0 2.136.792 2.136 2.112v.36h-1.2c-5.112 0-6.888 1.8-6.888 4.152 0 2.16 1.656 3.504 4.032 3.504 2.376 0 3.576-1.152 3.984-1.8h.072V388h3.264v-7.872c0-2.928-1.92-4.632-5.4-4.632zm-.744 10.32c-1.128 0-1.848-.552-1.848-1.44 0-1.008.792-1.848 3.552-1.848h1.176v.864c0 1.344-1.272 2.424-2.88 2.424zm15.151 2.04v-2.952c-.696.312-1.104.384-1.44.384-.576 0-.984-.528-.984-1.272V371.2h-3.384v13.272c0 2.256 1.392 3.768 3.768 3.768.504 0 1.176-.096 2.04-.384zm7.351.456c2.928 0 5.112-1.44 5.856-4.248h-3.336c-.456 1.224-1.44 1.704-2.544 1.704-1.56 0-2.784-1.176-2.904-3.072v-.072h8.856v-.552c0-3.888-2.016-6.576-5.952-6.576-3.768 0-6.216 2.592-6.216 6.432 0 3.768 2.376 6.384 6.24 6.384zm-2.832-7.632c.192-1.704 1.248-2.784 2.832-2.784 1.68 0 2.664 1.152 2.712 2.784h-5.544zm18.578-5.184c-1.752 0-3.144.816-3.912 2.568v-2.256h-3.384V388h3.384v-6.192c0-2.16 1.176-3.336 2.88-3.336 1.32 0 2.16 1.056 2.16 2.76V388h3.384v-7.488c0-2.976-1.608-5.016-4.512-5.016zm19.176 7.656h-3.312c-.24 1.512-1.104 2.472-2.688 2.472-1.896 0-3-1.512-3-3.744s1.104-3.744 3-3.744c1.512 0 2.376.912 2.616 2.304h3.336c-.336-3.048-2.616-4.944-5.904-4.944-3.888 0-6.312 2.616-6.312 6.384 0 3.816 2.424 6.432 6.312 6.432 3.408 0 5.688-2.04 5.952-5.16zm1.973-9.24h4.104v-3.144h-4.104v3.144zm.36 14.088h3.384v-12.192h-3.384V388zm11.815-12.504c-3.144 0-5.352 1.512-5.4 4.248h3.216c.096-1.056.888-1.752 2.184-1.752 1.32 0 2.136.792 2.136 2.112v.36h-1.2c-5.112 0-6.888 1.8-6.888 4.152 0 2.16 1.656 3.504 4.032 3.504 2.376 0 3.576-1.152 3.984-1.8h.072V388h3.264v-7.872c0-2.928-1.92-4.632-5.4-4.632zm-.744 10.32c-1.128 0-1.848-.552-1.848-1.44 0-1.008.792-1.848 3.552-1.848h1.176v.864c0 1.344-1.272 2.424-2.88 2.424zm-74.815 23.152v-2.592h-3.192l.888-4.176h-3l-.888 4.176h-3.288l.888-4.176h-3l-.888 4.176h-3.576v2.592h3.024l-.768 3.504h-3.408v2.592h2.856l-.84 3.936h3l.84-3.936h3.288l-.84 3.936h3l.84-3.936h3.912v-2.592h-3.36l.768-3.504h3.744zm-7.512 3.504h-3.288l.768-3.504h3.288l-.768 3.504zm16.352-10.272h-6V419h6c5.664 0 9.12-3.552 9.12-8.448 0-4.848-3.456-8.352-9.12-8.352zm.24 13.728h-2.472v-10.656h2.472c3.144 0 5.04 2.16 5.04 5.28 0 3.192-1.896 5.376-5.04 5.376zm18.156-4.224l4.896-4.2v-2.664h-11.544v2.904h7.464l-4.728 4.488.984 1.968h2.064c1.776 0 2.952 1.008 2.952 2.448s-1.128 2.496-2.784 2.496c-1.728 0-2.976-1.224-2.976-2.904h-3.456c0 3.288 2.712 5.664 6.432 5.664 3.528 0 6.072-2.136 6.072-5.256 0-2.736-2.112-4.656-5.376-4.944zm21.827 4.032h-2.328v-6.288h-2.976l-.36 6.288h-4.728c1.728-3.528 3.072-7.104 3.864-10.896h-3.672c-.84 4.08-2.232 7.872-4.128 11.64l.432 1.968h8.208v3.72h3.36v-3.72h2.328v-2.712zm9.504-7.704c-2.112 0-3.48 1.008-4.176 2.448.192-3.912 1.488-5.928 3.552-5.928 1.08 0 2.136.576 2.424 2.064h3.648c-.696-3.696-3.84-4.728-6.168-4.728-4.032 0-6.888 3.12-6.888 8.808 0 2.688.528 4.848 1.728 6.336 1.152 1.464 2.976 2.28 5.088 2.28 3.816 0 6.384-2.352 6.384-5.856 0-3.144-2.352-5.424-5.592-5.424zm-.696 8.64c-1.824 0-3.048-1.392-3.048-3.192 0-1.824 1.296-3 3-3 1.824 0 3 1.32 3 3.096 0 1.824-1.2 3.096-2.952 3.096zm22.317-.936h-2.328v-6.288h-2.976l-.36 6.288h-4.728c1.728-3.528 3.072-7.104 3.864-10.896h-3.672c-.84 4.08-2.232 7.872-4.128 11.64l.432 1.968h8.208v3.72h3.36v-3.72h2.328v-2.712zm9.504-7.704c-2.112 0-3.48 1.008-4.176 2.448.192-3.912 1.488-5.928 3.552-5.928 1.08 0 2.136.576 2.424 2.064h3.648c-.696-3.696-3.84-4.728-6.168-4.728-4.032 0-6.888 3.12-6.888 8.808 0 2.688.528 4.848 1.728 6.336 1.152 1.464 2.976 2.28 5.088 2.28 3.816 0 6.384-2.352 6.384-5.856 0-3.144-2.352-5.424-5.592-5.424zm-.696 8.64c-1.824 0-3.048-1.392-3.048-3.192 0-1.824 1.296-3 3-3 1.824 0 3 1.32 3 3.096 0 1.824-1.2 3.096-2.952 3.096z"/>
        <g filter="url(#67bc262c-e960-4f80-bda0-fcbf88e56146)">
            <path fill="#46D390" d="M553 453v65h-65v-65h65z"/>
        </g>
        <path fill="#000000" d="M588.112 470.88h-3.816c.144 4.128 3.096 6.384 7.368 6.384 4.224 0 6.744-2.112 6.744-5.184 0-3.792-3.72-4.344-6.144-4.944-2.952-.792-3.768-1.272-3.768-2.4 0-1.296 1.104-2.064 2.832-2.064 1.752 0 2.928.888 3.12 2.928h3.72c-.288-3.912-2.928-5.712-6.912-5.712-4.08 0-6.456 1.872-6.456 5.016 0 3.528 3.264 4.248 6.336 4.992 2.112.528 3.528.936 3.528 2.376 0 1.392-1.296 2.16-2.976 2.16-1.968 0-3.456-1.224-3.576-3.552zm20.551-6.384c-1.752 0-3.144.816-3.912 2.568V460.2h-3.384V477h3.384v-6.192c0-2.16 1.176-3.336 2.88-3.336 1.32 0 2.16 1.056 2.16 2.76V477h3.384v-7.488c0-2.976-1.608-5.016-4.512-5.016zm12.816 0c-3.144 0-5.352 1.512-5.4 4.248h3.216c.096-1.056.888-1.752 2.184-1.752 1.32 0 2.136.792 2.136 2.112v.36h-1.2c-5.112 0-6.888 1.8-6.888 4.152 0 2.16 1.656 3.504 4.032 3.504 2.376 0 3.576-1.152 3.984-1.8h.072V477h3.264v-7.872c0-2.928-1.92-4.632-5.4-4.632zm-.744 10.32c-1.128 0-1.848-.552-1.848-1.44 0-1.008.792-1.848 3.552-1.848h1.176v.864c0 1.344-1.272 2.424-2.88 2.424zm24.343-10.32c-1.68 0-3.216.696-4.08 2.376-.696-1.56-2.064-2.376-3.864-2.376-1.632 0-2.928.72-3.672 2.352v-2.04h-3.384V477h3.384v-6.624c0-1.872.888-2.904 2.52-2.904 1.272 0 2.136.888 2.136 2.568V477h3.384v-6.624c0-1.872.864-2.904 2.52-2.904 1.272 0 2.112.888 2.112 2.568V477h3.384v-7.368c0-3.384-1.824-5.136-4.44-5.136zm11.048 3.552v-3.24h-3.384V477h3.384v-4.584c0-3.24 1.344-4.632 5.256-4.224v-3.504c-2.688 0-4.464.936-5.256 3.36zm12.707-3.552c-3.864 0-6.336 2.616-6.336 6.384 0 3.816 2.472 6.432 6.336 6.432 3.888 0 6.36-2.616 6.36-6.432 0-3.768-2.472-6.384-6.36-6.384zm0 2.712c1.944 0 3.048 1.56 3.048 3.672 0 2.16-1.104 3.72-3.048 3.72-1.92 0-3.024-1.56-3.024-3.72 0-2.112 1.104-3.672 3.024-3.672zm20.342 4.944h-3.312c-.24 1.512-1.104 2.472-2.688 2.472-1.896 0-3-1.512-3-3.744s1.104-3.744 3-3.744c1.512 0 2.376.912 2.616 2.304h3.336c-.336-3.048-2.616-4.944-5.904-4.944-3.888 0-6.312 2.616-6.312 6.384 0 3.816 2.424 6.432 6.312 6.432 3.408 0 5.688-2.04 5.952-5.16zM700.076 477h3.96l-4.224-6.864 3.816-5.328h-3.912l-2.568 3.888h-2.256V460.2h-3.384V477h3.384v-5.232h2.28l2.904 5.232zm-99.148 20.968v-2.592h-3.192l.888-4.176h-3l-.888 4.176h-3.288l.888-4.176h-3l-.888 4.176h-3.576v2.592h3.024l-.768 3.504h-3.408v2.592h2.856l-.84 3.936h3l.84-3.936h3.288l-.84 3.936h3l.84-3.936h3.912v-2.592h-3.36l.768-3.504h3.744zm-7.512 3.504h-3.288l.768-3.504h3.288l-.768 3.504zm23.504 3.264h-2.328v-6.288h-2.976l-.36 6.288h-4.728c1.728-3.528 3.072-7.104 3.864-10.896h-3.672c-.84 4.08-2.232 7.872-4.128 11.64l.432 1.968h8.208v3.72h3.36v-3.72h2.328v-2.712zm9.505-7.704c-2.112 0-3.48 1.008-4.176 2.448.192-3.912 1.488-5.928 3.552-5.928 1.08 0 2.136.576 2.424 2.064h3.648c-.696-3.696-3.84-4.728-6.168-4.728-4.032 0-6.888 3.12-6.888 8.808 0 2.688.528 4.848 1.728 6.336 1.152 1.464 2.976 2.28 5.088 2.28 3.816 0 6.384-2.352 6.384-5.856 0-3.144-2.352-5.424-5.592-5.424zm-.696 8.64c-1.824 0-3.048-1.392-3.048-3.192 0-1.824 1.296-3 3-3 1.824 0 3 1.32 3 3.096 0 1.824-1.2 3.096-2.952 3.096zm15.446-14.472h-6V508h6c5.664 0 9.12-3.552 9.12-8.448 0-4.848-3.456-8.352-9.12-8.352zm.24 13.728h-2.472v-10.656h2.472c3.144 0 5.04 2.16 5.04 5.28 0 3.192-1.896 5.376-5.04 5.376zm18.155-4.224l4.896-4.2v-2.664h-11.544v2.904h7.464l-4.728 4.488.984 1.968h2.064c1.776 0 2.952 1.008 2.952 2.448s-1.128 2.496-2.784 2.496c-1.728 0-2.976-1.224-2.976-2.904h-3.456c0 3.288 2.712 5.664 6.432 5.664 3.528 0 6.072-2.136 6.072-5.256 0-2.736-2.112-4.656-5.376-4.944zm18.315-4.896c-1.176-1.464-2.88-2.28-4.992-2.28-3.792 0-6.384 2.352-6.384 5.856 0 3.144 2.352 5.424 5.592 5.424 2.112 0 3.48-1.008 4.176-2.448-.192 3.912-1.464 5.928-3.504 5.928-1.104 0-2.16-.576-2.472-2.064h-3.672c.672 3.696 3.864 4.728 6.192 4.728 4.032 0 6.888-3.12 6.888-8.808 0-2.688-.624-4.848-1.824-6.336zm-5.04 6.552c-1.824 0-3-1.32-3-3.096 0-1.824 1.2-3.096 2.952-3.096 1.824 0 3.048 1.392 3.048 3.192 0 1.824-1.272 3-3 3zm15.669-8.856c-4.032 0-6.984 3.048-6.984 7.392s2.952 7.368 6.984 7.368c4.056 0 6.984-3.024 6.984-7.368s-2.928-7.392-6.984-7.392zm0 2.736c2.088 0 3.528 1.824 3.528 4.656s-1.44 4.608-3.528 4.608-3.528-1.776-3.528-4.608 1.44-4.656 3.528-4.656z"/>
        <g filter="url(#cd84b306-cb04-4979-9076-7a14985f0fde)">
            <path fill="#0047BB" d="M553 275v65h-65v-65h65z"/>
        </g>
        <path fill="#000000" d="M600.616 292.688h-4.008c-.408 2.232-1.776 3.48-3.864 3.48-2.808 0-4.608-2.304-4.608-5.592 0-3.264 1.8-5.568 4.608-5.568 2.088 0 3.528 1.224 3.912 3.408h3.984c-.552-4.152-3.48-6.528-7.872-6.528-5.16 0-8.496 3.528-8.496 8.712 0 5.16 3.336 8.688 8.496 8.688 4.488 0 7.344-2.424 7.848-6.6zm8.498-6.192c-3.864 0-6.336 2.616-6.336 6.384 0 3.816 2.472 6.432 6.336 6.432 3.888 0 6.36-2.616 6.36-6.432 0-3.768-2.472-6.384-6.36-6.384zm0 2.712c1.944 0 3.048 1.56 3.048 3.672 0 2.16-1.104 3.72-3.048 3.72-1.92 0-3.024-1.56-3.024-3.72 0-2.112 1.104-3.672 3.024-3.672zm16.046 10.104c3.48 0 5.64-2.664 5.64-6.48 0-3.696-2.16-6.336-5.64-6.336-1.656 0-3.192.792-3.792 2.04h-.024l.024-6.336h-3.384V299h3.384l-.024-1.872h.024c.648 1.32 2.16 2.184 3.792 2.184zm-.792-10.08c1.8 0 3.096 1.44 3.096 3.6 0 2.304-1.296 3.744-3.096 3.744-1.848 0-3.12-1.416-3.12-3.624v-.144c.024-2.16 1.296-3.576 3.12-3.576zm14.056-2.736c-3.144 0-5.352 1.512-5.4 4.248h3.216c.096-1.056.888-1.752 2.184-1.752 1.32 0 2.136.792 2.136 2.112v.36h-1.2c-5.112 0-6.888 1.8-6.888 4.152 0 2.16 1.656 3.504 4.032 3.504 2.376 0 3.576-1.152 3.984-1.8h.072V299h3.264v-7.872c0-2.928-1.92-4.632-5.4-4.632zm-.744 10.32c-1.128 0-1.848-.552-1.848-1.44 0-1.008.792-1.848 3.552-1.848h1.176v.864c0 1.344-1.272 2.424-2.88 2.424zm15.151 2.04v-2.952c-.696.312-1.104.384-1.44.384-.576 0-.984-.528-.984-1.272V282.2h-3.384v13.272c0 2.256 1.392 3.768 3.768 3.768.504 0 1.176-.096 2.04-.384zm10.164-9.408v-2.64h-4.2v-3.648h-3.384v1.632c0 1.416-.672 2.016-2.136 2.016h-.048v2.64h2.184v5.496c0 2.592 1.92 4.296 4.824 4.296.792 0 1.752-.12 2.52-.528v-2.856c-.864.456-1.488.528-1.992.528-1.224 0-1.968-.672-1.968-1.92v-5.016h4.2zm-62.067 30.52v-2.592h-3.192l.888-4.176h-3l-.888 4.176h-3.288l.888-4.176h-3l-.888 4.176h-3.576v2.592h3.024l-.768 3.504h-3.408v2.592h2.856l-.84 3.936h3l.84-3.936h3.288l-.84 3.936h3l.84-3.936h3.912v-2.592h-3.36l.768-3.504h3.744zm-7.512 3.504h-3.288l.768-3.504h3.288l-.768 3.504zm16.16-7.968c-4.032 0-6.984 3.048-6.984 7.392s2.952 7.368 6.984 7.368c4.056 0 6.984-3.024 6.984-7.368s-2.928-7.392-6.984-7.392zm0 2.736c2.088 0 3.528 1.824 3.528 4.656s-1.44 4.608-3.528 4.608-3.528-1.776-3.528-4.608 1.44-4.656 3.528-4.656zm15.844-2.736c-4.032 0-6.984 3.048-6.984 7.392s2.952 7.368 6.984 7.368c4.056 0 6.984-3.024 6.984-7.368s-2.928-7.392-6.984-7.392zm0 2.736c2.088 0 3.528 1.824 3.528 4.656s-1.44 4.608-3.528 4.608-3.528-1.776-3.528-4.608 1.44-4.656 3.528-4.656zm23.188 8.496h-2.328v-6.288h-2.976l-.36 6.288h-4.728c1.728-3.528 3.072-7.104 3.864-10.896h-3.672c-.84 4.08-2.232 7.872-4.128 11.64l.432 1.968h8.208v3.72h3.36v-3.72h2.328v-2.712zm.127-10.896v3.096h9.336c-4.224 3.792-6.096 8.784-6.096 13.44v.264h3.96c0-4.752 1.608-10.176 5.832-14.232v-2.568h-13.032zm26.013 5.544c2.112-.624 3.504-1.848 3.504-4.032 0-2.448-2.04-4.152-5.184-4.152h-8.784V330h8.784c3.384 0 5.616-1.8 5.616-4.536 0-2.328-1.512-3.6-3.936-4.08zm-6.696-5.52h4.2c1.488 0 2.472.816 2.472 2.136 0 1.176-.816 2.136-2.808 2.136h-3.864v-4.272zm4.104 11.472h-4.104v-4.728h4.248c1.992 0 2.808 1.176 2.808 2.376 0 1.584-1.392 2.352-2.952 2.352zm20.428-5.952c2.112-.624 3.504-1.848 3.504-4.032 0-2.448-2.04-4.152-5.184-4.152h-8.784V330h8.784c3.384 0 5.616-1.8 5.616-4.536 0-2.328-1.512-3.6-3.936-4.08zm-6.696-5.52h4.2c1.488 0 2.472.816 2.472 2.136 0 1.176-.816 2.136-2.808 2.136h-3.864v-4.272zm4.104 11.472h-4.104v-4.728h4.248c1.992 0 2.808 1.176 2.808 2.376 0 1.584-1.392 2.352-2.952 2.352z"/>
        <g filter="url(#5a14ca2c-b902-41a8-89c5-4190ec8cf01b)">
            <path fill="#154167" d="M623 65v135H488V65h135z"/>
        </g>
        <path fill="#000000" d="M670.616 120.688h-4.008c-.408 2.232-1.776 3.48-3.864 3.48-2.808 0-4.608-2.304-4.608-5.592 0-3.264 1.8-5.568 4.608-5.568 2.088 0 3.528 1.224 3.912 3.408h3.984c-.552-4.152-3.48-6.528-7.872-6.528-5.16 0-8.496 3.528-8.496 8.712 0 5.16 3.336 8.688 8.496 8.688 4.488 0 7.344-2.424 7.848-6.6zm10.25-6.192c-1.752 0-3.144.816-3.912 2.568V110.2h-3.384V127h3.384v-6.192c0-2.16 1.176-3.336 2.88-3.336 1.32 0 2.16 1.056 2.16 2.76V127h3.384v-7.488c0-2.976-1.608-5.016-4.512-5.016zm12.816 0c-3.144 0-5.352 1.512-5.4 4.248h3.216c.096-1.056.888-1.752 2.184-1.752 1.32 0 2.136.792 2.136 2.112v.36h-1.2c-5.112 0-6.888 1.8-6.888 4.152 0 2.16 1.656 3.504 4.032 3.504 2.376 0 3.576-1.152 3.984-1.8h.072V127h3.264v-7.872c0-2.928-1.92-4.632-5.4-4.632zm-.744 10.32c-1.128 0-1.848-.552-1.848-1.44 0-1.008.792-1.848 3.552-1.848h1.176v.864c0 1.344-1.272 2.424-2.88 2.424zm17.557-7.368v-2.64h-4.2v-3.648h-3.384v1.632c0 1.416-.672 2.016-2.136 2.016h-.048v2.64h2.184v5.496c0 2.592 1.92 4.296 4.824 4.296.792 0 1.752-.12 2.52-.528v-2.856c-.864.456-1.488.528-1.992.528-1.224 0-1.968-.672-1.968-1.92v-5.016h4.2zm9.465-2.952c-1.752 0-3.144.816-3.912 2.568V110.2h-3.384V127h3.384v-6.192c0-2.16 1.176-3.336 2.88-3.336 1.32 0 2.16 1.056 2.16 2.76V127h3.384v-7.488c0-2.976-1.608-5.016-4.512-5.016zm12.816 0c-3.144 0-5.352 1.512-5.4 4.248h3.216c.096-1.056.888-1.752 2.184-1.752 1.32 0 2.136.792 2.136 2.112v.36h-1.2c-5.112 0-6.888 1.8-6.888 4.152 0 2.16 1.656 3.504 4.032 3.504 2.376 0 3.576-1.152 3.984-1.8h.072V127h3.264v-7.872c0-2.928-1.92-4.632-5.4-4.632zm-.744 10.32c-1.128 0-1.848-.552-1.848-1.44 0-1.008.792-1.848 3.552-1.848h1.176v.864c0 1.344-1.272 2.424-2.88 2.424zm24.343-10.32c-1.68 0-3.216.696-4.08 2.376-.696-1.56-2.064-2.376-3.864-2.376-1.632 0-2.928.72-3.672 2.352v-2.04h-3.384V127h3.384v-6.624c0-1.872.888-2.904 2.52-2.904 1.272 0 2.136.888 2.136 2.568V127h3.384v-6.624c0-1.872.864-2.904 2.52-2.904 1.272 0 2.112.888 2.112 2.568V127h3.384v-7.368c0-3.384-1.824-5.136-4.44-5.136zm14.456 4.176h3.048c-.288-2.76-2.112-4.176-5.352-4.176-3.024 0-5.088 1.176-5.088 3.744 0 2.688 1.92 3.192 4.584 3.768 2.112.456 2.736.624 2.736 1.512 0 .984-.816 1.368-1.992 1.368-1.464 0-2.424-.768-2.64-2.208h-3.024c.168 2.952 2.208 4.632 5.712 4.632 3.216 0 5.184-1.32 5.184-3.96 0-2.784-2.088-3.192-4.8-3.768-1.752-.408-2.592-.576-2.592-1.488 0-.72.72-1.272 1.896-1.272 1.392 0 2.136.672 2.328 1.848zm21.94-.288c2.112-.624 3.504-1.848 3.504-4.032 0-2.448-2.04-4.152-5.184-4.152h-8.784V127h8.784c3.384 0 5.616-1.8 5.616-4.536 0-2.328-1.512-3.6-3.936-4.08zm-6.696-5.52h4.2c1.488 0 2.472.816 2.472 2.136 0 1.176-.816 2.136-2.808 2.136h-3.864v-4.272zm4.104 11.472h-4.104v-4.728h4.248c1.992 0 2.808 1.176 2.808 2.376 0 1.584-1.392 2.352-2.952 2.352zm15.41 2.52v-2.952c-.696.312-1.104.384-1.44.384-.576 0-.984-.528-.984-1.272V110.2h-3.384v13.272c0 2.256 1.392 3.768 3.768 3.768.504 0 1.176-.096 2.04-.384zm13.543-12.048h-3.384V121c0 2.16-1.176 3.336-2.88 3.336-1.344 0-2.16-1.056-2.16-2.76v-6.768h-3.384v7.296c0 3.288 1.824 5.16 4.608 5.16 1.704 0 3.048-.744 3.816-2.352V127h3.384v-12.192zm8.761 12.504c2.928 0 5.112-1.44 5.856-4.248h-3.336c-.456 1.224-1.44 1.704-2.544 1.704-1.56 0-2.784-1.176-2.904-3.072v-.072h8.856v-.552c0-3.888-2.016-6.576-5.952-6.576-3.768 0-6.216 2.592-6.216 6.432 0 3.768 2.376 6.384 6.24 6.384zm-2.832-7.632c.192-1.704 1.248-2.784 2.832-2.784 1.68 0 2.664 1.152 2.712 2.784h-5.544zm-154.133 28.288v-2.592h-3.192l.888-4.176h-3l-.888 4.176h-3.288l.888-4.176h-3l-.888 4.176h-3.576v2.592h3.024l-.768 3.504h-3.408v2.592h2.856l-.84 3.936h3l.84-3.936h3.288l-.84 3.936h3l.84-3.936h3.912v-2.592h-3.36l.768-3.504h3.744zm-7.512 3.504h-3.288l.768-3.504h3.288l-.768 3.504zm18.056 3.744V143.84h-2.04l-5.904 1.704v3.48l4.464-1.92v8.112h-4.56V158h12.024v-2.784h-3.984zm13.496-5.808c-1.776 0-3.192.744-4.032 2.016l.24-4.68h8.664v-2.904h-11.52v.024l-.048-.024-.384 8.904 3.072.816c.696-.912 1.776-1.488 3.048-1.488 1.872 0 3.168 1.272 3.168 3 0 1.776-1.296 3.072-3.096 3.072-1.68 0-3.024-1.08-3.24-2.736h-3.432c.288 3.432 3.024 5.544 6.648 5.544 3.84 0 6.504-2.496 6.504-5.904 0-3.288-2.52-5.64-5.592-5.64zm21.976 5.328h-2.328v-6.288h-2.976l-.36 6.288h-4.728c1.728-3.528 3.072-7.104 3.864-10.896h-3.672c-.84 4.08-2.232 7.872-4.128 11.64l.432 1.968h8.208v3.72h3.36v-3.72h2.328v-2.712zm9.247.48V143.84h-2.04l-5.904 1.704v3.48l4.464-1.92v8.112h-4.56V158h12.024v-2.784h-3.984zm13.546-8.184c-2.112 0-3.48 1.008-4.176 2.448.192-3.912 1.488-5.928 3.552-5.928 1.08 0 2.136.576 2.424 2.064h3.648c-.696-3.696-3.84-4.728-6.168-4.728-4.032 0-6.888 3.12-6.888 8.808 0 2.688.528 4.848 1.728 6.336 1.152 1.464 2.976 2.28 5.088 2.28 3.816 0 6.384-2.352 6.384-5.856 0-3.144-2.352-5.424-5.592-5.424zm-.696 8.64c-1.824 0-3.048-1.392-3.048-3.192 0-1.824 1.296-3 3-3 1.824 0 3 1.32 3 3.096 0 1.824-1.2 3.096-2.952 3.096zm7.397-11.832v3.096h9.336c-4.224 3.792-6.096 8.784-6.096 13.44v.264h3.96c0-4.752 1.608-10.176 5.832-14.232v-2.568h-13.032z"/>
        <path fill="#000000" d="M129.28 595l-5.004-9.612c2.7-1.404 4.428-4.032 4.428-7.308 0-4.788-3.852-8.28-9.18-8.28h-14.148V595h8.244v-8.532h3.42l3.276 8.532h8.964zm-15.66-19.368h4.32c1.62 0 2.808 1.044 2.808 2.448 0 1.548-1.188 2.664-2.808 2.664h-4.32v-5.112zm26.859.288c-5.112 0-8.964 2.124-8.964 6.66h6.66c.108-1.008.864-1.692 2.232-1.692 1.404 0 2.196.756 2.196 2.16v.288h-1.116c-8.064 0-10.872 2.808-10.872 6.48 0 3.312 2.628 5.328 6.228 5.328 3.852 0 5.256-1.728 5.58-2.34h.18V595h6.912v-11.88c0-4.716-3.024-7.2-9.036-7.2zm-.756 14.724c-1.116 0-1.908-.576-1.908-1.476 0-1.008.828-1.908 3.744-1.908h1.044v.864c0 1.548-1.26 2.52-2.88 2.52zm26.751-8.82v-5.4h-5.472v-5.184h-7.2v2.448c0 1.728-1.116 2.736-2.664 2.736h-.108v5.4h2.772v6.984c0 3.924 3.204 6.66 7.884 6.66 1.224 0 2.988-.144 4.428-.936v-5.94c-1.44.828-2.196.9-2.844.9-1.296 0-2.268-.756-2.268-2.124v-5.544h5.472zm1.804-7.56h8.532v-5.76h-8.532v5.76zm.684 20.736h7.2v-18.576h-7.2V595zm19.969-19.08c-6.228 0-10.116 3.816-10.116 9.72 0 6.012 3.888 9.864 10.116 9.864 6.192 0 10.116-3.852 10.116-9.864 0-5.904-3.924-9.72-10.116-9.72zm0 5.58c2.052 0 3.06 1.764 3.06 4.14 0 2.52-1.008 4.284-3.06 4.284-2.088 0-3.096-1.764-3.096-4.284 0-2.376 1.008-4.14 3.096-4.14zm25.54-5.58c-2.52 0-4.536 1.116-5.688 3.708v-3.204h-7.2V595h7.2v-9.108c0-2.808 1.296-3.708 2.844-3.708 1.404 0 2.304 1.152 2.304 3.132V595h7.236v-11.916c0-4.176-2.52-7.164-6.696-7.164zm18.891 0c-5.112 0-8.964 2.124-8.964 6.66h6.66c.108-1.008.864-1.692 2.232-1.692 1.404 0 2.196.756 2.196 2.16v.288h-1.116c-8.064 0-10.872 2.808-10.872 6.48 0 3.312 2.628 5.328 6.228 5.328 3.852 0 5.256-1.728 5.58-2.34h.18V595h6.912v-11.88c0-4.716-3.024-7.2-9.036-7.2zm-.756 14.724c-1.116 0-1.908-.576-1.908-1.476 0-1.008.828-1.908 3.744-1.908h1.044v.864c0 1.548-1.26 2.52-2.88 2.52zm23.359 4.248v-6.228c-1.008.468-1.476.54-1.908.54-.648 0-1.152-.612-1.152-1.44V569.8h-7.2v19.152c0 3.96 2.52 6.516 6.876 6.516.828 0 1.872-.144 3.384-.576zm30.248-25.092h-22.572v6.588h7.164V595h8.244v-18.612h7.164V569.8zm8.959 25.704c4.68 0 8.244-2.016 9.432-6.552h-6.696c-.504 1.08-1.404 1.476-2.736 1.476-1.548 0-3.06-1.08-3.204-3.06v-.108h12.744v-1.044c0-6.264-3.096-10.296-9.684-10.296-6.048 0-9.9 3.816-9.9 9.756 0 5.976 3.852 9.828 10.044 9.828zm-2.988-11.88c.036-1.836 1.26-3.024 2.916-3.024 1.8 0 2.916 1.224 2.952 3.024h-5.868zm28.452 1.8l5.76-9h-7.38l-2.7 4.896-2.736-4.896h-8.532l6.084 9.36-6.228 9.216h7.38l2.916-4.572 2.808 4.572h8.532l-5.904-9.576zm21.725-3.6v-5.4h-5.472v-5.184h-7.2v2.448c0 1.728-1.116 2.736-2.664 2.736h-.108v5.4h2.772v6.984c0 3.924 3.204 6.66 7.884 6.66 1.224 0 2.988-.144 4.428-.936v-5.94c-1.44.828-2.196.9-2.844.9-1.296 0-2.268-.756-2.268-2.124v-5.544h5.472zm21.119-10.008v-4.896h-11.592v32.22h11.592v-4.896h-4.428v-22.428h4.428zm24.056 4.104v-6.12h-20.808V595h20.808v-6.12h-12.564v-3.816h11.736v-5.796h-11.736v-3.348h12.564zm17.299 9.504l5.76-9h-7.38l-2.7 4.896-2.736-4.896h-8.532l6.084 9.36-6.228 9.216h7.38l2.916-4.572 2.808 4.572h8.532l-5.904-9.576zm21.725-3.6v-5.4h-5.472v-5.184h-7.2v2.448c0 1.728-1.116 2.736-2.664 2.736h-.108v5.4h2.772v6.984c0 3.924 3.204 6.66 7.884 6.66 1.224 0 2.988-.144 4.428-.936v-5.94c-1.44.828-2.196.9-2.844.9-1.296 0-2.268-.756-2.268-2.124v-5.544h5.472zm9.544-.324v-5.076h-7.2V595h7.2v-6.012c0-4.32 1.26-6.264 7.488-5.58v-7.2c-4.212 0-6.516 1.476-7.488 5.292zm17.899-5.58c-5.112 0-8.964 2.124-8.964 6.66h6.66c.108-1.008.864-1.692 2.232-1.692 1.404 0 2.196.756 2.196 2.16v.288h-1.116c-8.064 0-10.872 2.808-10.872 6.48 0 3.312 2.628 5.328 6.228 5.328 3.852 0 5.256-1.728 5.58-2.34h.18V595h6.912v-11.88c0-4.716-3.024-7.2-9.036-7.2zm-.756 14.724c-1.116 0-1.908-.576-1.908-1.476 0-1.008.828-1.908 3.744-1.908h1.044v.864c0 1.548-1.26 2.52-2.88 2.52zm37.958-8.424c3.456-.756 5.652-2.52 5.652-6.012 0-3.744-3.168-6.408-7.992-6.408h-15.192V595h15.552c4.968 0 8.208-2.808 8.208-6.84 0-3.672-2.412-5.328-6.228-5.94zm-9.288-7.02h4.752c1.728 0 2.664.936 2.664 2.268 0 1.296-.972 2.268-2.952 2.268h-4.464V575.2zm4.824 14.4h-4.824v-5.004h4.896c1.98 0 2.952 1.188 2.952 2.484 0 1.512-1.26 2.52-3.024 2.52zm22.675-13.68c-6.228 0-10.116 3.816-10.116 9.72 0 6.012 3.888 9.864 10.116 9.864 6.192 0 10.116-3.852 10.116-9.864 0-5.904-3.924-9.72-10.116-9.72zm0 5.58c2.052 0 3.06 1.764 3.06 4.14 0 2.52-1.008 4.284-3.06 4.284-2.088 0-3.096-1.764-3.096-4.284 0-2.376 1.008-4.14 3.096-4.14zm22.912 13.392v-6.228c-1.008.468-1.476.54-1.908.54-.648 0-1.152-.612-1.152-1.44V569.8h-7.2v19.152c0 3.96 2.52 6.516 6.876 6.516.828 0 1.872-.144 3.384-.576zm9.352.612c2.16 0 4.536-1.08 5.364-2.772h.036V595h7.236v-25.2h-7.236v8.784h-.036c-.828-1.656-3.168-2.664-5.364-2.664-5.184 0-8.208 3.924-8.208 9.648 0 6.012 3.024 9.936 8.208 9.936zm2.232-13.932c1.764 0 3.24 1.368 3.24 3.96v.18c0 2.772-1.476 4.14-3.24 4.14-1.764 0-3.312-1.404-3.312-4.284 0-2.592 1.548-3.996 3.312-3.996zm24.532-14.652h-11.592v4.896h4.428v22.428h-4.428v4.896h11.592v-32.22z"/>
        <path fill="#000000" d="M120.208 631l-3.648-6.744c1.944-.84 3.192-2.616 3.192-4.824 0-3.048-2.472-5.232-5.904-5.232h-9V631h4.632v-6.216h3l2.64 6.216h5.088zm-10.728-13.464h3.576c1.272 0 2.184.792 2.184 1.896 0 1.2-.912 2.064-2.184 2.064h-3.576v-3.96zm18.198.864c-3.288 0-5.664 1.44-5.688 4.344h3.816c.072-.888.744-1.44 1.824-1.44 1.152 0 1.8.648 1.8 1.752v.288h-.96c-5.232 0-7.056 1.824-7.056 4.248 0 2.184 1.68 3.504 4.08 3.504 2.472 0 3.528-1.128 3.84-1.656h.096V631h3.936v-7.896c0-3.048-1.968-4.704-5.688-4.704zm-.648 10.056c-.912 0-1.536-.456-1.536-1.224 0-.84.672-1.536 3-1.536h.936v.696c0 1.2-1.056 2.064-2.4 2.064zm17.719-6.624v-3.12h-3.912v-3.552h-4.104v1.632c0 1.272-.696 1.92-1.968 1.92h-.048v3.12h2.016v5.088c0 2.592 2.016 4.368 5.04 4.368.816 0 1.872-.12 2.736-.6v-3.408c-.912.504-1.464.576-1.944.576-1.032 0-1.728-.6-1.728-1.656v-4.368h3.912zm1.518-4.776h4.872v-3.504h-4.872v3.504zm.384 13.944h4.104v-12.288h-4.104V631zm12.792-12.6c-4.008 0-6.552 2.568-6.552 6.432 0 3.888 2.544 6.48 6.552 6.48 3.984 0 6.528-2.592 6.528-6.48 0-3.864-2.544-6.432-6.528-6.432zm0 3.192c1.632 0 2.544 1.368 2.544 3.24 0 1.896-.912 3.288-2.544 3.288-1.656 0-2.568-1.392-2.568-3.288 0-1.872.912-3.24 2.568-3.24zm16.573-3.192c-1.704 0-3.096.768-3.864 2.496v-2.184h-4.104V631h4.104v-6.144c0-1.992 1.008-2.904 2.376-2.904 1.152 0 1.848.912 1.848 2.448v6.6h4.104v-7.728c0-2.856-1.632-4.872-4.464-4.872zm12.717 0c-3.288 0-5.664 1.44-5.688 4.344h3.816c.072-.888.744-1.44 1.824-1.44 1.152 0 1.8.648 1.8 1.752v.288h-.96c-5.232 0-7.056 1.824-7.056 4.248 0 2.184 1.68 3.504 4.08 3.504 2.472 0 3.528-1.128 3.84-1.656h.096V631h3.936v-7.896c0-3.048-1.968-4.704-5.688-4.704zm-.648 10.056c-.912 0-1.536-.456-1.536-1.224 0-.84.672-1.536 3-1.536h.936v.696c0 1.2-1.056 2.064-2.4 2.064zm15.385 2.448v-3.576c-.696.336-1.056.384-1.344.384-.504 0-.888-.456-.888-1.128V614.2h-4.104v13.032c0 2.424 1.536 4.056 4.176 4.056.552 0 1.224-.12 2.16-.384zm20.493-16.704h-14.664v3.72h5.016V631h4.632v-13.08h5.016v-3.72zm5.885 17.112c3 0 5.304-1.392 6.048-4.296h-3.888c-.384.984-1.176 1.344-2.184 1.344-1.296 0-2.4-.96-2.52-2.544v-.096h8.688v-.6c0-4.032-2.064-6.72-6.216-6.72-3.888 0-6.408 2.568-6.408 6.456 0 3.888 2.472 6.456 6.48 6.456zm-2.424-7.776c.12-1.464 1.032-2.376 2.376-2.376 1.464 0 2.328.984 2.352 2.376h-4.728zm18.586 1.176l4.032-6h-4.272l-2.232 3.648-2.232-3.648h-4.848l4.2 6.168-4.296 6.12h4.272l2.352-3.504L245.29 631h4.848l-4.128-6.288zm14.52-2.88v-3.12h-3.912v-3.552h-4.104v1.632c0 1.272-.696 1.92-1.968 1.92h-.048v3.12h2.016v5.088c0 2.592 2.016 4.368 5.04 4.368.816 0 1.872-.12 2.736-.6v-3.408c-.912.504-1.464.576-1.944.576-1.032 0-1.728-.6-1.728-1.656v-4.368h3.912zm14.215-6.696v-2.856h-7.128v21.48h7.128v-2.856h-3.096v-15.768h3.096zm13.597 7.296c2.208-.552 3.624-1.752 3.624-4.008 0-2.472-2.064-4.224-5.256-4.224h-9.456V631h9.576c3.36 0 5.544-1.824 5.544-4.56 0-2.4-1.56-3.576-4.032-4.008zm-6.456-5.112h3.672c1.344 0 2.136.744 2.136 1.848 0 1.008-.72 1.824-2.4 1.824h-3.408v-3.672zm3.648 10.56h-3.648v-4.056h3.744c1.68 0 2.4 1.008 2.4 2.016 0 1.296-1.104 2.04-2.496 2.04zm15.097-9.48c-4.008 0-6.552 2.568-6.552 6.432 0 3.888 2.544 6.48 6.552 6.48 3.984 0 6.528-2.592 6.528-6.48 0-3.864-2.544-6.432-6.528-6.432zm0 3.192c1.632 0 2.544 1.368 2.544 3.24 0 1.896-.912 3.288-2.544 3.288-1.656 0-2.568-1.392-2.568-3.288 0-1.872.912-3.24 2.568-3.24zm14.941 9.312v-3.576c-.696.336-1.056.384-1.344.384-.504 0-.888-.456-.888-1.128V614.2h-4.104v13.032c0 2.424 1.536 4.056 4.176 4.056.552 0 1.224-.12 2.16-.384zm6.481.408c1.536 0 3.168-.768 3.768-2.016h.024V631h4.104v-16.8h-4.104v6.096h-.048c-.552-1.176-2.184-1.896-3.744-1.896-3.456 0-5.544 2.616-5.544 6.384 0 3.912 2.088 6.528 5.544 6.528zm1.152-9.672c1.488 0 2.616 1.176 2.64 3.096v.144c0 2.04-1.128 3.192-2.64 3.192-1.488 0-2.664-1.2-2.664-3.288 0-1.968 1.176-3.144 2.664-3.144zm15.876-9.36h-7.128v2.856h3.096v15.768h-3.096v2.856h7.128v-21.48z"/>
        <path fill="#000000" d="M115.69 656l-2.97-5.346c1.548-.54 2.556-1.854 2.556-3.546 0-2.16-1.782-3.708-4.248-3.708h-6.444V656h2.826v-5.058h2.772L112.54 656h3.15zm-8.28-10.512h3.222c1.08 0 1.872.684 1.872 1.62 0 1.026-.792 1.782-1.872 1.782h-3.222v-3.402zm13.867 1.134c-2.358 0-4.014 1.134-4.05 3.186h2.412c.072-.792.666-1.314 1.638-1.314.99 0 1.602.594 1.602 1.584v.27h-.9c-3.834 0-5.166 1.35-5.166 3.114 0 1.62 1.242 2.628 3.024 2.628s2.682-.864 2.988-1.35h.054V656h2.448v-5.904c0-2.196-1.44-3.474-4.05-3.474zm-.558 7.74c-.846 0-1.386-.414-1.386-1.08 0-.756.594-1.386 2.664-1.386h.882v.648c0 1.008-.954 1.818-2.16 1.818zm13.168-5.526v-1.98h-3.15v-2.736h-2.538v1.224c0 1.062-.504 1.512-1.602 1.512h-.036v1.98h1.638v4.122c0 1.944 1.44 3.222 3.618 3.222.594 0 1.314-.09 1.89-.396v-2.142c-.648.342-1.116.396-1.494.396-.918 0-1.476-.504-1.476-1.44v-3.762h3.15zm1.356-3.402h3.078v-2.358h-3.078v2.358zm.27 10.566h2.538v-9.144h-2.538V656zm9.186-9.378c-2.898 0-4.752 1.962-4.752 4.788 0 2.862 1.854 4.824 4.752 4.824 2.916 0 4.77-1.962 4.77-4.824 0-2.826-1.854-4.788-4.77-4.788zm0 2.034c1.458 0 2.286 1.17 2.286 2.754 0 1.62-.828 2.79-2.286 2.79-1.44 0-2.268-1.17-2.268-2.79 0-1.584.828-2.754 2.268-2.754zm12.124-2.034c-1.314 0-2.358.612-2.934 1.926v-1.692h-2.538V656h2.538v-4.644c0-1.62.882-2.502 2.16-2.502.99 0 1.62.792 1.62 2.07V656h2.538v-5.616c0-2.232-1.206-3.762-3.384-3.762zm9.612 0c-2.358 0-4.014 1.134-4.05 3.186h2.412c.072-.792.666-1.314 1.638-1.314.99 0 1.602.594 1.602 1.584v.27h-.9c-3.834 0-5.166 1.35-5.166 3.114 0 1.62 1.242 2.628 3.024 2.628s2.682-.864 2.988-1.35h.054V656h2.448v-5.904c0-2.196-1.44-3.474-4.05-3.474zm-.558 7.74c-.846 0-1.386-.414-1.386-1.08 0-.756.594-1.386 2.664-1.386h.882v.648c0 1.008-.954 1.818-2.16 1.818zm11.364 1.53v-2.214c-.522.234-.828.288-1.08.288-.432 0-.738-.396-.738-.954V643.4h-2.538v9.954c0 1.692 1.044 2.826 2.826 2.826.378 0 .882-.072 1.53-.288zm15.597-12.492h-10.71v2.304h3.942V656h2.826v-10.296h3.942V643.4zm4.312 12.834c2.196 0 3.834-1.08 4.392-3.186h-2.502c-.342.918-1.08 1.278-1.908 1.278-1.17 0-2.088-.882-2.178-2.304v-.054h6.642v-.414c0-2.916-1.512-4.932-4.464-4.932-2.826 0-4.662 1.944-4.662 4.824 0 2.826 1.782 4.788 4.68 4.788zm-2.124-5.724c.144-1.278.936-2.088 2.124-2.088 1.26 0 1.998.864 2.034 2.088h-4.158zm13.653.828l3.168-4.482h-2.718l-1.998 3.042-1.998-3.042h-3.006l3.24 4.572-3.312 4.572h2.718l2.088-2.952 2.052 2.952h3.006l-3.24-4.662zm10.919-2.502v-1.98h-3.15v-2.736h-2.538v1.224c0 1.062-.504 1.512-1.602 1.512h-.036v1.98h1.638v4.122c0 1.944 1.44 3.222 3.618 3.222.594 0 1.314-.09 1.89-.396v-2.142c-.648.342-1.116.396-1.494.396-.918 0-1.476-.504-1.476-1.44v-3.762h3.15zm10.744-5.022v-1.854h-4.896v16.11h4.896v-1.854h-2.43v-12.402h2.43zm4.408 7.596h-2.862c.108 3.096 2.322 4.788 5.526 4.788 3.168 0 5.058-1.584 5.058-3.888 0-2.844-2.79-3.258-4.608-3.708-2.214-.594-2.826-.954-2.826-1.8 0-.972.828-1.548 2.124-1.548 1.314 0 2.196.666 2.34 2.196h2.79c-.216-2.934-2.196-4.284-5.184-4.284-3.06 0-4.842 1.404-4.842 3.762 0 2.646 2.448 3.186 4.752 3.744 1.584.396 2.646.702 2.646 1.782 0 1.044-.972 1.62-2.232 1.62-1.476 0-2.592-.918-2.682-2.664zm14.027 4.824c2.196 0 3.834-1.08 4.392-3.186h-2.502c-.342.918-1.08 1.278-1.908 1.278-1.17 0-2.088-.882-2.178-2.304v-.054h6.642v-.414c0-2.916-1.512-4.932-4.464-4.932-2.826 0-4.662 1.944-4.662 4.824 0 2.826 1.782 4.788 4.68 4.788zm-2.124-5.724c.144-1.278.936-2.088 2.124-2.088 1.26 0 1.998.864 2.034 2.088h-4.158zm19.712-3.888c-1.26 0-2.412.522-3.06 1.782-.522-1.17-1.548-1.782-2.898-1.782-1.224 0-2.196.54-2.754 1.764v-1.53h-2.538V656h2.538v-4.968c0-1.404.666-2.178 1.89-2.178.954 0 1.602.666 1.602 1.926V656h2.538v-4.968c0-1.404.648-2.178 1.89-2.178.954 0 1.584.666 1.584 1.926V656h2.538v-5.526c0-2.538-1.368-3.852-3.33-3.852zm5.478-1.188h3.078v-2.358h-3.078v2.358zm.27 10.566h2.538v-9.144h-2.538V656zm17.313-6.462c1.584-.468 2.628-1.386 2.628-3.024 0-1.836-1.53-3.114-3.888-3.114h-6.588V656h6.588c2.538 0 4.212-1.35 4.212-3.402 0-1.746-1.134-2.7-2.952-3.06zm-5.022-4.14h3.15c1.116 0 1.854.612 1.854 1.602 0 .882-.612 1.602-2.106 1.602h-2.898v-3.204zm3.078 8.604h-3.078v-3.546h3.186c1.494 0 2.106.882 2.106 1.782 0 1.188-1.044 1.764-2.214 1.764zm11.289-7.38c-2.898 0-4.752 1.962-4.752 4.788 0 2.862 1.854 4.824 4.752 4.824 2.916 0 4.77-1.962 4.77-4.824 0-2.826-1.854-4.788-4.77-4.788zm0 2.034c1.458 0 2.286 1.17 2.286 2.754 0 1.62-.828 2.79-2.286 2.79-1.44 0-2.268-1.17-2.268-2.79 0-1.584.828-2.754 2.268-2.754zm11.009 7.236v-2.214c-.522.234-.828.288-1.08.288-.432 0-.738-.396-.738-.954V643.4h-2.538v9.954c0 1.692 1.044 2.826 2.826 2.826.378 0 .882-.072 1.53-.288zm5.063.342c1.224 0 2.466-.648 2.934-1.638h.018V656h2.538v-12.6h-2.538v4.752h-.018c-.45-.936-1.692-1.53-2.934-1.53-2.61 0-4.23 1.98-4.23 4.752 0 2.862 1.62 4.86 4.23 4.86zm.576-7.56c1.386 0 2.34 1.062 2.34 2.682v.108c0 1.656-.954 2.718-2.34 2.718-1.35 0-2.304-1.08-2.304-2.808 0-1.62.954-2.7 2.304-2.7zm11.567-6.714h-4.896v1.854h2.43v12.402h-2.43v1.854h4.896v-16.11z"/>
        <path fill="#000000" d="M115.456 679l-3.222-5.634c1.656-.45 2.754-1.764 2.754-3.474 0-2.052-1.71-3.492-4.086-3.492h-6.12V679h2.178v-5.454h3.258l2.754 5.454h2.484zm-8.496-10.926h3.744c1.224 0 2.106.756 2.106 1.818 0 1.152-.882 1.998-2.106 1.998h-3.744v-3.816zm14.069 1.638c-2.268 0-3.78 1.152-3.834 3.114h1.944c.072-.954.792-1.548 1.89-1.548 1.152 0 1.854.702 1.854 1.818v.342h-1.062c-3.726 0-5.022 1.314-5.022 3.06 0 1.602 1.188 2.592 2.97 2.592 1.71 0 2.7-.846 3.078-1.422h.036V679h1.944v-5.886c0-2.124-1.404-3.402-3.798-3.402zm-.666 7.92c-.972 0-1.584-.468-1.584-1.26 0-.882.684-1.584 3.042-1.584h1.062v.738c0 1.134-1.116 2.106-2.52 2.106zm13.063-6.084v-1.62h-3.348v-2.808h-2.016v1.224c0 1.152-.468 1.584-1.746 1.584h-.018v1.62h1.764v4.446c0 1.926 1.35 3.168 3.456 3.168.594 0 1.224-.108 1.728-.378v-1.728c-.612.306-1.116.378-1.53.378-1.044 0-1.638-.576-1.638-1.62v-4.266h3.348zm1.576-3.204h2.466v-2.106h-2.466v2.106zm.216 10.656h2.016v-9.072h-2.016V679zm8.777-9.288c-2.79 0-4.608 1.98-4.608 4.752s1.818 4.752 4.608 4.752c2.808 0 4.608-1.98 4.608-4.752s-1.8-4.752-4.608-4.752zm0 1.638c1.656 0 2.664 1.314 2.664 3.114 0 1.782-1.008 3.114-2.664 3.114-1.638 0-2.646-1.332-2.646-3.114 0-1.8 1.008-3.114 2.646-3.114zm11.802-1.638c-1.35 0-2.412.63-2.988 1.926v-1.71h-2.016V679h2.016v-4.698c0-1.71.99-2.826 2.52-2.826 1.152 0 1.854.9 1.854 2.34V679h1.998v-5.454c0-2.286-1.17-3.834-3.384-3.834zm9.704 0c-2.268 0-3.78 1.152-3.834 3.114h1.944c.072-.954.792-1.548 1.89-1.548 1.152 0 1.854.702 1.854 1.818v.342h-1.062c-3.726 0-5.022 1.314-5.022 3.06 0 1.602 1.188 2.592 2.97 2.592 1.71 0 2.7-.846 3.078-1.422h.036V679h1.944v-5.886c0-2.124-1.404-3.402-3.798-3.402zm-.666 7.92c-.972 0-1.584-.468-1.584-1.26 0-.882.684-1.584 3.042-1.584h1.062v.738c0 1.134-1.116 2.106-2.52 2.106zm11.206 1.242v-1.782c-.54.252-.882.306-1.134.306-.486 0-.828-.432-.828-1.08V666.4h-2.016v10.152c0 1.53.936 2.61 2.52 2.61.378 0 .864-.09 1.458-.288zm15.843-12.474h-10.422v1.8h4.122V679h2.178v-10.8h4.122v-1.8zm4.246 12.816c2.106 0 3.69-1.116 4.212-3.132h-2.07c-.378 1.116-1.26 1.548-2.178 1.548-1.368 0-2.358-1.062-2.466-2.682v-.072h6.786v-.342c0-2.808-1.512-4.824-4.284-4.824-2.718 0-4.518 1.962-4.518 4.788 0 2.754 1.71 4.716 4.518 4.716zm-2.448-5.616c.216-1.458 1.08-2.358 2.448-2.358 1.458 0 2.286.99 2.322 2.358h-4.77zm13.366.81l3.312-4.482h-2.232l-2.322 3.33-2.304-3.33h-2.376l3.348 4.518-3.42 4.554h2.232l2.394-3.294 2.376 3.294h2.376l-3.384-4.59zm10.964-2.862v-1.62h-3.348v-2.808h-2.016v1.224c0 1.152-.468 1.584-1.746 1.584h-.018v1.62h1.764v4.446c0 1.926 1.35 3.168 3.456 3.168.594 0 1.224-.108 1.728-.378v-1.728c-.612.306-1.116.378-1.53.378-1.044 0-1.638-.576-1.638-1.62v-4.266h3.348zm10.828-5.04v-1.548h-4.446v16.11h4.446v-1.548h-2.538v-13.014h2.538zm13.036-.108l-4.32 6.102-4.32-6.102h-1.962V679h2.124v-9.18l4.014 5.544h.288l4.014-5.544V679h2.124v-12.6h-1.962zm9.045 12.816c2.106 0 3.69-1.116 4.212-3.132h-2.07c-.378 1.116-1.26 1.548-2.178 1.548-1.368 0-2.358-1.062-2.466-2.682v-.072h6.786v-.342c0-2.808-1.512-4.824-4.284-4.824-2.718 0-4.518 1.962-4.518 4.788 0 2.754 1.71 4.716 4.518 4.716zm-2.448-5.616c.216-1.458 1.08-2.358 2.448-2.358 1.458 0 2.286.99 2.322 2.358h-4.77zm12.567 5.616c1.296 0 2.574-.684 3.078-1.764h.018V679h1.998v-12.6h-1.998v4.932h-.036c-.45-.99-1.746-1.62-3.06-1.62-2.61 0-4.284 1.98-4.284 4.716 0 2.79 1.674 4.788 4.284 4.788zm.324-7.848c1.62 0 2.682 1.26 2.7 3.024v.126c0 1.8-1.062 3.042-2.7 3.042-1.584 0-2.646-1.278-2.646-3.132 0-1.8 1.062-3.06 2.646-3.06zm7.302-3.024h2.466v-2.106h-2.466v2.106zm.216 10.656h2.016v-9.072h-2.016V679zm13.061-9.072h-2.016v4.698c0 1.71-.972 2.826-2.502 2.826-1.17 0-1.854-.9-1.854-2.34v-5.184h-2.016v5.382c0 2.412 1.26 3.888 3.438 3.888 1.296 0 2.34-.576 2.934-1.782V679h2.016v-9.072zm13.612-.216c-1.278 0-2.43.54-3.042 1.818-.54-1.188-1.602-1.818-2.988-1.818-1.224 0-2.178.54-2.718 1.728v-1.512h-2.016V679h2.016v-4.95c0-1.602.702-2.574 2.214-2.574 1.098 0 1.854.756 1.854 2.268V679h2.016v-4.95c0-1.602.684-2.574 2.196-2.574 1.116 0 1.836.756 1.836 2.268V679h2.016v-5.454c0-2.502-1.368-3.834-3.384-3.834zm9.379-4.752h-4.446v1.548h2.538v13.014h-2.538v1.548h4.446v-16.11z"/>
        <path fill="#000000" d="M115.24 702l-3.492-5.94c1.764-.342 2.952-1.638 2.952-3.384 0-1.926-1.638-3.276-3.906-3.276h-5.814V702h1.53v-5.85h3.708l3.204 5.85h1.818zm-8.73-11.34h4.284c1.35 0 2.34.846 2.34 2.016 0 1.278-.99 2.214-2.34 2.214h-4.284v-4.23zm14.305 2.142c-2.178 0-3.564 1.17-3.618 3.042h1.476c.072-1.098.9-1.782 2.142-1.782 1.314 0 2.124.792 2.124 2.07v.396h-1.242c-3.618 0-4.896 1.278-4.896 2.988 0 1.584 1.17 2.574 2.934 2.574 1.638 0 2.736-.828 3.168-1.512h.036V702h1.44v-5.868c0-2.052-1.368-3.33-3.564-3.33zm-.756 8.1c-1.116 0-1.818-.522-1.818-1.422 0-1.008.792-1.8 3.456-1.8h1.242v.846c0 1.242-1.296 2.376-2.88 2.376zm12.96-6.642V693h-3.564v-2.88h-1.476v1.224c0 1.26-.45 1.656-1.872 1.656h-.018v1.26h1.89v4.77c0 1.908 1.278 3.096 3.294 3.096.594 0 1.134-.108 1.566-.324v-1.314a3.634 3.634 0 0 1-1.566.342c-1.188 0-1.818-.63-1.818-1.8v-4.77h3.564zm1.794-3.006h1.872V689.4h-1.872v1.854zm.198 10.746h1.476v-9h-1.476v9zm8.386-9.198c-2.7 0-4.464 1.998-4.464 4.698s1.764 4.698 4.464 4.698 4.464-1.998 4.464-4.698-1.764-4.698-4.464-4.698zm0 1.26c1.854 0 3.024 1.458 3.024 3.438 0 1.98-1.17 3.438-3.024 3.438s-3.024-1.458-3.024-3.438c0-1.98 1.17-3.438 3.024-3.438zm11.479-1.26c-1.386 0-2.448.666-3.024 1.962V693h-1.476v9h1.476v-4.752c0-1.818 1.098-3.15 2.88-3.15 1.314 0 2.088 1.026 2.088 2.61V702h1.476v-5.292c0-2.34-1.152-3.906-3.42-3.906zm9.814 0c-2.178 0-3.564 1.17-3.618 3.042h1.476c.072-1.098.9-1.782 2.142-1.782 1.314 0 2.124.792 2.124 2.07v.396h-1.242c-3.618 0-4.896 1.278-4.896 2.988 0 1.584 1.17 2.574 2.934 2.574 1.638 0 2.736-.828 3.168-1.512h.036V702h1.44v-5.868c0-2.052-1.368-3.33-3.564-3.33zm-.756 8.1c-1.116 0-1.818-.522-1.818-1.422 0-1.008.792-1.8 3.456-1.8h1.242v.846c0 1.242-1.296 2.376-2.88 2.376zm11.047.954v-1.35c-.54.27-.918.324-1.206.324-.522 0-.9-.486-.9-1.188V689.4h-1.476v10.35c0 1.386.828 2.376 2.214 2.376.36 0 .828-.072 1.368-.27zm16.072-12.456h-10.134v1.314h4.302V702h1.53v-11.286h4.302V689.4zm4.162 12.798c2.034 0 3.546-1.152 4.05-3.078h-1.638c-.432 1.296-1.44 1.818-2.448 1.818-1.566 0-2.646-1.242-2.754-3.06v-.072h6.912v-.306c0-2.7-1.476-4.698-4.086-4.698-2.61 0-4.374 1.98-4.374 4.752 0 2.664 1.638 4.644 4.338 4.644zm-2.754-5.508c.27-1.62 1.224-2.628 2.772-2.628 1.638 0 2.574 1.116 2.61 2.628h-5.382zm13.08.774l3.438-4.464h-1.746l-2.628 3.636-2.628-3.636h-1.746l3.438 4.464-3.51 4.536h1.746l2.7-3.636 2.7 3.636h1.746l-3.51-4.536zm10.974-3.204V693h-3.564v-2.88h-1.476v1.224c0 1.26-.45 1.656-1.872 1.656h-.018v1.26h1.89v4.77c0 1.908 1.278 3.096 3.294 3.096.594 0 1.134-.108 1.566-.324v-1.314a3.634 3.634 0 0 1-1.566.342c-1.188 0-1.818-.63-1.818-1.8v-4.77h3.564zm10.912-5.058v-1.242h-3.996v16.11h3.996v-1.242h-2.646v-13.626h2.646zm9.856 6.246c1.296-.558 2.196-1.548 2.196-3.006 0-1.818-1.476-3.042-3.78-3.042h-5.58V702h5.4c2.61 0 4.32-1.278 4.32-3.402 0-1.602-.972-2.7-2.556-3.15zm-5.634-4.77h3.906c1.386 0 2.394.792 2.394 2.088 0 1.116-.738 2.07-2.754 2.07h-3.546v-4.158zm3.726 10.044h-3.726v-4.608h3.906c2.016 0 2.754 1.17 2.754 2.304 0 1.638-1.458 2.304-2.934 2.304zm11.276-7.92c-2.7 0-4.464 1.998-4.464 4.698s1.764 4.698 4.464 4.698 4.464-1.998 4.464-4.698-1.764-4.698-4.464-4.698zm0 1.26c1.854 0 3.024 1.458 3.024 3.438 0 1.98-1.17 3.438-3.024 3.438s-3.024-1.458-3.024-3.438c0-1.98 1.17-3.438 3.024-3.438zm10.723-1.26c-2.7 0-4.464 1.998-4.464 4.698s1.764 4.698 4.464 4.698 4.464-1.998 4.464-4.698-1.764-4.698-4.464-4.698zm0 1.26c1.854 0 3.024 1.458 3.024 3.438 0 1.98-1.17 3.438-3.024 3.438s-3.024-1.458-3.024-3.438c0-1.98 1.17-3.438 3.024-3.438zM270.94 702h1.764l-3.384-5.148 3.024-3.852h-1.746l-2.484 3.222h-2.286V689.4h-1.476V702h1.476v-4.464h2.322l2.79 4.464zm6.669-14.04h-3.996v1.242h2.646v13.626h-2.646v1.242h3.996v-16.11z"/>
        <path fill="#000000" d="M107.914 742.124v-6.204h-.48l-.012.012v-.012l-2.94.96v1.056l2.4-1.02v5.208h-2.4V743h5.58v-.876h-2.148zm4.413 0l1.464-.888c1.224-.744 2.58-1.596 2.58-3.132 0-1.368-1.116-2.352-2.664-2.352-1.74 0-2.82 1.02-2.868 2.7h1.044c-.036-1.152.648-1.848 1.812-1.848.96 0 1.656.636 1.656 1.512 0 1.104-1.104 1.836-1.932 2.4l-2.484 1.68h-.012V743h5.772v-.876h-4.368zm5.932.876h1.236v-1.236h-1.236V743zm12.444-1.692v-8.928h-1.134l-.018.018v-.018l-4.41 1.35v2.106l3.474-1.494v6.966h-3.51V743h8.694v-1.692h-3.096zm11.674-4.932c1.494-.45 2.268-1.494 2.268-2.808 0-1.926-1.854-3.384-4.374-3.384-2.538 0-4.392 1.458-4.392 3.384 0 1.314.792 2.358 2.268 2.808-1.782.486-2.718 1.674-2.718 3.15 0 2.106 2.034 3.69 4.842 3.69 2.79 0 4.842-1.584 4.842-3.69 0-1.476-.954-2.664-2.736-3.15zm-2.106-4.59c1.404 0 2.358.738 2.358 1.926 0 1.116-.954 1.98-2.358 1.98-1.422 0-2.358-.864-2.358-1.98 0-1.188.954-1.926 2.358-1.926zm0 9.756c-1.566 0-2.682-.882-2.682-2.214 0-1.242 1.098-2.106 2.682-2.106 1.566 0 2.664.864 2.664 2.106 0 1.332-1.098 2.214-2.664 2.214zm6.43 1.458h2.34v-2.304h-2.34V743zm12.59-3.288l1.104-.504c3.72-1.272 5.712-3.12 5.712-5.664 0-3.072-2.4-5.064-6.12-5.064-3.936 0-6.336 2.16-6.408 5.712h4.056c-.024-1.32.792-2.376 2.28-2.376 1.248 0 2.04.84 2.04 1.896 0 1.392-1.32 2.376-2.88 3.288l-5.208 3h-.024v3h12.624v-3.288h-7.176zm23.686-.312h-2.28v-6.048h-3.456l-.576 6.048h-3.888c1.584-3.504 2.808-6.96 3.48-10.56h-4.488c-.624 3.864-1.896 7.536-3.624 11.304l.528 2.496h7.968v3.432h4.056v-3.432h2.28v-3.24zm2.142 3.6h4.44v-4.296h-4.44V743zm22.522-11.124l6.3-4.716v-5.4h-18.54v6.12h9.468l-5.436 4.716 1.692 4.176h3.312c2.016 0 3.24.936 3.24 2.448 0 1.44-1.08 2.448-2.7 2.448-1.764 0-3.06-1.332-3.06-3.132h-7.308c0 5.148 4.356 8.856 10.368 8.856 5.616 0 9.684-3.276 9.684-8.172 0-3.816-2.628-6.48-7.02-7.344zm22.218-5.4c-2.592 0-4.284 1.044-5.256 2.52.288-3.96 1.296-6.336 3.456-6.336 1.116 0 2.052.792 2.268 2.196h7.56c-.9-6.228-6.552-7.56-9.972-7.56-6.552 0-10.872 4.824-10.872 13.14 0 4.176.756 7.488 2.7 9.72 1.872 2.196 4.896 3.348 8.136 3.348 6.156 0 10.296-3.528 10.296-9.144 0-4.644-3.6-7.884-8.316-7.884zm-1.836 11.736c-1.872 0-3.204-1.512-3.204-3.528s1.368-3.42 3.204-3.42 3.132 1.476 3.132 3.492-1.296 3.456-3.132 3.456zM239.619 743h2.556v-2.46h-2.556V743z"/>
        <defs fill="none">
            <filter color-interpolation-filters="sRGB" filterUnits="userSpaceOnUse" height="143" width="143" y="65" x="99" id="86a21c4d-33c7-45ef-8778-02e19d29c9bb">
                <feFlood result="BackgroundImageFix" flood-opacity="0"/>
                <feColorMatrix values="0 0 0 0 0 0 0 0 0 0 0 0 0 0 0 0 0 0 127 0" in="SourceAlpha"/>
                <feOffset dy="4"/>
                <feGaussianBlur stdDeviation="2"/>
                <feColorMatrix values="0 0 0 0 0 0 0 0 0 0 0 0 0 0 0 0 0 0 0.25 0"/>
                <feBlend result="effect1_dropShadow" in2="BackgroundImageFix"/>
                <feBlend result="shape" in2="effect1_dropShadow" in="SourceGraphic"/>
            </filter>
            <filter color-interpolation-filters="sRGB" filterUnits="userSpaceOnUse" height="143" width="143" y="224" x="99" id="cac42131-e0a5-4c09-8333-d1c0f5e0424c">
                <feFlood result="BackgroundImageFix" flood-opacity="0"/>
                <feColorMatrix values="0 0 0 0 0 0 0 0 0 0 0 0 0 0 0 0 0 0 127 0" in="SourceAlpha"/>
                <feOffset dy="4"/>
                <feGaussianBlur stdDeviation="2"/>
                <feColorMatrix values="0 0 0 0 0 0 0 0 0 0 0 0 0 0 0 0 0 0 0.25 0"/>
                <feBlend result="effect1_dropShadow" in2="BackgroundImageFix"/>
                <feBlend result="shape" in2="effect1_dropShadow" in="SourceGraphic"/>
            </filter>
            <filter color-interpolation-filters="sRGB" filterUnits="userSpaceOnUse" height="143" width="143" y="383" x="99" id="8ee41799-d213-48bd-8f46-214e54e2b3e6">
                <feFlood result="BackgroundImageFix" flood-opacity="0"/>
                <feColorMatrix values="0 0 0 0 0 0 0 0 0 0 0 0 0 0 0 0 0 0 127 0" in="SourceAlpha"/>
                <feOffset dy="4"/>
                <feGaussianBlur stdDeviation="2"/>
                <feColorMatrix values="0 0 0 0 0 0 0 0 0 0 0 0 0 0 0 0 0 0 0.25 0"/>
                <feBlend result="effect1_dropShadow" in2="BackgroundImageFix"/>
                <feBlend result="shape" in2="effect1_dropShadow" in="SourceGraphic"/>
            </filter>
            <filter color-interpolation-filters="sRGB" filterUnits="userSpaceOnUse" height="73" width="73" y="364" x="484" id="1da1056e-d7a1-47b7-a72e-7c594aab717a">
                <feFlood result="BackgroundImageFix" flood-opacity="0"/>
                <feColorMatrix values="0 0 0 0 0 0 0 0 0 0 0 0 0 0 0 0 0 0 127 0" in="SourceAlpha"/>
                <feOffset dy="4"/>
                <feGaussianBlur stdDeviation="2"/>
                <feColorMatrix values="0 0 0 0 0 0 0 0 0 0 0 0 0 0 0 0 0 0 0.25 0"/>
                <feBlend result="effect1_dropShadow" in2="BackgroundImageFix"/>
                <feBlend result="shape" in2="effect1_dropShadow" in="SourceGraphic"/>
            </filter>
            <filter color-interpolation-filters="sRGB" filterUnits="userSpaceOnUse" height="73" width="73" y="453" x="484" id="67bc262c-e960-4f80-bda0-fcbf88e56146">
                <feFlood result="BackgroundImageFix" flood-opacity="0"/>
                <feColorMatrix values="0 0 0 0 0 0 0 0 0 0 0 0 0 0 0 0 0 0 127 0" in="SourceAlpha"/>
                <feOffset dy="4"/>
                <feGaussianBlur stdDeviation="2"/>
                <feColorMatrix values="0 0 0 0 0 0 0 0 0 0 0 0 0 0 0 0 0 0 0.25 0"/>
                <feBlend result="effect1_dropShadow" in2="BackgroundImageFix"/>
                <feBlend result="shape" in2="effect1_dropShadow" in="SourceGraphic"/>
            </filter>
            <filter color-interpolation-filters="sRGB" filterUnits="userSpaceOnUse" height="73" width="73" y="275" x="484" id="cd84b306-cb04-4979-9076-7a14985f0fde">
                <feFlood result="BackgroundImageFix" flood-opacity="0"/>
                <feColorMatrix values="0 0 0 0 0 0 0 0 0 0 0 0 0 0 0 0 0 0 127 0" in="SourceAlpha"/>
                <feOffset dy="4"/>
                <feGaussianBlur stdDeviation="2"/>
                <feColorMatrix values="0 0 0 0 0 0 0 0 0 0 0 0 0 0 0 0 0 0 0.25 0"/>
                <feBlend result="effect1_dropShadow" in2="BackgroundImageFix"/>
                <feBlend result="shape" in2="effect1_dropShadow" in="SourceGraphic"/>
            </filter>
            <filter color-interpolation-filters="sRGB" filterUnits="userSpaceOnUse" height="143" width="143" y="65" x="484" id="5a14ca2c-b902-41a8-89c5-4190ec8cf01b">
                <feFlood result="BackgroundImageFix" flood-opacity="0"/>
                <feColorMatrix values="0 0 0 0 0 0 0 0 0 0 0 0 0 0 0 0 0 0 127 0" in="SourceAlpha"/>
                <feOffset dy="4"/>
                <feGaussianBlur stdDeviation="2"/>
                <feColorMatrix values="0 0 0 0 0 0 0 0 0 0 0 0 0 0 0 0 0 0 0.25 0"/>
                <feBlend result="effect1_dropShadow" in2="BackgroundImageFix"/>
                <feBlend result="shape" in2="effect1_dropShadow" in="SourceGraphic"/>
            </filter>
        </defs>
    </g>
</svg>
