<?xml version="1.0" encoding="UTF-8"?>
<svg data-bbox="0 0 1266.92 129.504" viewBox="0 0 1272.55 130.18" xmlns="http://www.w3.org/2000/svg" data-type="ugc">
    <g>
        <g>
            <path style="isolation:isolate" fill="none" stroke="#000000" stroke-miterlimit="10" stroke-width=".25" opacity=".5" d="M17.89 39.5h1242.58"/>
            <path d="M84 37A37 37 0 1 1 47 0a37 37 0 0 1 37 37z" fill="#f7a600"/>
            <path d="M40.73 47h12.5v2.5h-12.5z" fill="#ffffff"/>
            <path d="M43.24 52h7.49v2.5h-7.5z" fill="#ffffff"/>
            <path d="M47 19.5A12.5 12.5 0 0 0 34.49 32a11.5 11.5 0 0 0 4.33 9.53c1.25 1.16 1.92 1.82 1.92 3h2.5c0-2.3-1.39-3.59-2.73-4.83A9 9 0 0 1 37 32a10 10 0 0 1 20 0 9 9 0 0 1-3.52 7.67c-1.34 1.25-2.73 2.5-2.73 4.83h2.5c0-1.15.66-1.81 1.93-3a11.48 11.48 0 0 0 4.31-9.5A12.49 12.49 0 0 0 47 19.52z" fill="#ffffff"/>
            <path d="M281.15 37a37 37 0 1 1-37-37 37 37 0 0 1 37 37z" fill="#f7a600"/>
            <path d="M241 22a10.83 10.83 0 0 1 10.83 10.83 10.82 10.82 0 0 1-2.6 7l.45.45H251l8.33 8.34-2.5 2.5-8.33-8.34v-1.31L248 41a10.84 10.84 0 1 1-7-19zm0 3.33a7.48 7.48 0 0 0-7.5 7.44v.06a7.5 7.5 0 1 0 7.5-7.5z" fill="#ffffff"/>
            <path d="M1266.92 37a37 37 0 1 1-37-37 37 37 0 0 1 37 37z" fill="#f7a600"/>
            <path d="M1238.25 47h-16.66V27h16.66v18.33h3.34V22a3.34 3.34 0 0 0-3.34-3.33h-16.66a3.34 3.34 0 0 0-3.34 3.33v30a3.34 3.34 0 0 0 3.34 3.33h16.66a3.34 3.34 0 0 0 3.34-3.33v-6.67h-3.34zm-16.66-25h16.66v1.67h-16.66zm16.66 30h-16.66v-1.67h16.66z" fill="#ffffff"/>
            <path d="M675.46 37a37 37 0 1 1-37-37 37 37 0 0 1 37 37z" fill="#f7a600"/>
            <path d="M657 54.5h-2.5v-6.25a6.27 6.27 0 0 0-6.29-6.25v-2.5a8.77 8.77 0 0 1 8.79 8.75z" fill="#ffffff"/>
            <path d="M647 54.5h-2.5v-6.25a6.27 6.27 0 0 0-6.29-6.25h-7.48a6.25 6.25 0 0 0-6.25 6.25v6.25H622v-6.25a8.75 8.75 0 0 1 8.75-8.75h7.5a8.77 8.77 0 0 1 8.75 8.75z" fill="#ffffff"/>
            <path d="M644.46 19.5V22a6.25 6.25 0 0 1 4.42 10.66 6.25 6.25 0 0 1-4.42 1.83V37a8.75 8.75 0 0 0 0-17.5z" fill="#ffffff"/>
            <path d="M634.46 22a6.25 6.25 0 0 1 2.38 12 6.48 6.48 0 0 1-1.16.35 6.25 6.25 0 0 1-7.35-4.91 6.13 6.13 0 0 1-.12-1.21 6.25 6.25 0 0 1 6.25-6.23zm0-2.5a8.75 8.75 0 1 0 8.75 8.75 8.75 8.75 0 0 0-8.75-8.75z" fill="#ffffff"/>
            <path d="M1069.73 37a37 37 0 1 1-37-37 37 37 0 0 1 37 37z" fill="#f7a600"/>
            <path d="M1049.73 22.32a93.8 93.8 0 0 0-14.42 0 5.42 5.42 0 0 0 0 7.56l7.21 7.3 7.21-7.29a5.42 5.42 0 0 0 0-7.56zm-1.78 5.8l-5.43 5.5-5.43-5.5a2.83 2.83 0 0 1 4-4l1.47 1.51 1.47-1.51a2.84 2.84 0 0 1 4 0 2.89 2.89 0 0 1 0 4z" fill="#ffffff"/>
            <path d="M1033.73 54.5h-2.5v-6.25a3.76 3.76 0 0 0-3.75-3.75h-5a3.75 3.75 0 0 0-3.75 3.75v6.25h-2.5v-6.25a6.25 6.25 0 0 1 6.25-6.25h5a6.27 6.27 0 0 1 6.25 6.25z" fill="#ffffff"/>
            <path d="M1025 29.5a3.78 3.78 0 1 1-.67 7.51 3.94 3.94 0 0 1-.69-.21 3.75 3.75 0 0 1 1.44-7.22zm0-2.5a6.23 6.23 0 0 0-5.77 3.86 6.12 6.12 0 0 0-.36 3.61 6.26 6.26 0 0 0 11.33 2.25 6.37 6.37 0 0 0 1-3.47 6.15 6.15 0 0 0-.48-2.39 6.22 6.22 0 0 0-3.38-3.38A6.15 6.15 0 0 0 1025 27z" fill="#ffffff"/>
            <path d="M478.3 37a37 37 0 1 1-37-37 37 37 0 0 1 37 37z" fill="#f7a600"/>
            <path d="M433 20.33v3.34h1.66V47A6.67 6.67 0 0 0 448 47V23.67h1.66v-3.34zm6.66 23.34A1.67 1.67 0 1 1 441.3 42a1.57 1.57 0 0 1-1.46 1.67zM443 37a1.67 1.67 0 1 1 1.66-1.68 1.58 1.58 0 0 1-1.52 1.68zm1.66-8.33H438v-5h6.66z" fill="#ffffff"/>
            <path d="M872.61 37a37 37 0 1 1-37-37 37 37 0 0 1 37 37z" fill="#f7a600"/>
            <path d="M827.28 20.33v3.34h1.66V47a6.67 6.67 0 0 0 11.37 4.72 6.64 6.64 0 0 0 2-4.71V23.67H844v-3.34zm6.66 23.34a1.67 1.67 0 1 1 1.67-1.67 1.57 1.57 0 0 1-1.46 1.67zm3.34-6.67a1.67 1.67 0 1 1 1.66-1.68 1.58 1.58 0 0 1-1.49 1.68zm1.66-8.33h-6.66v-5h6.66z" fill="#ffffff"/>
            <text transform="translate(0 126.16)" style="isolation:isolate" font-size="16" font-family="Karla-Bold,Karla" font-weight="700">
                The Problem
            </text>
            <text transform="translate(190.12 126.16)" style="isolation:isolate" font-size="16" font-family="Karla-Bold,Karla" font-weight="700">
                User Research
            </text>
            <text transform="translate(399.81 126.12)" style="isolation:isolate" font-size="16" font-family="Karla-Bold,Karla" font-weight="700">
                Ideation
            </text>
            <g style="isolation:isolate">
                <text transform="translate(591.85 126.12)" style="isolation:isolate" font-size="16" font-family="Karla-Bold,Karla" font-weight="700">
                    User
                </text>
                <text transform="translate(630.14 126.12)" style="isolation:isolate" letter-spacing="-.08em" font-size="16" font-family="Karla-Bold,Karla" font-weight="700">
                    T
                </text>
                <text transform="translate(637.31 126.12)" style="isolation:isolate" font-size="16" font-family="Karla-Bold,Karla" font-weight="700">
                    esting
                </text>
            </g>
            <text transform="translate(792.13 126.16)" style="isolation:isolate" font-size="16" font-family="Karla-Bold,Karla" font-weight="700">
                Prototyping
            </text>
            <g style="isolation:isolate">
                <text transform="translate(986.15 126.12)" style="isolation:isolate" font-size="16" font-family="Karla-Bold,Karla" font-weight="700">
                    User
                </text>
                <text transform="translate(1024.44 126.12)" style="isolation:isolate" letter-spacing="-.08em" font-size="16" font-family="Karla-Bold,Karla" font-weight="700">
                    T
                </text>
                <text transform="translate(1031.61 126.12)" style="isolation:isolate" font-size="16" font-family="Karla-Bold,Karla" font-weight="700">
                    esting
                </text>
            </g>
            <text transform="translate(1187.3 126.12)" style="isolation:isolate" font-size="16" font-family="Karla-Bold,Karla" font-weight="700">
                Conclusion
            </text>
        </g>
    </g>
</svg>
